<svg version="1.1" xmlns="http://www.w3.org/2000/svg" xmlns:xlink="http://www.w3.org/1999/xlink" x="0px" y="0px" width="417px"
	 height="107px" viewBox="0 0 417 107" enable-background="new 0 0 417 107" xml:space="preserve">
<g id="Capa_2">
	<path fill="#E17334" d="M344.194,65.186c-5.359-5.64-9.998-14.698-11.081-29.494c-4.369,10.234-2.464,20.509,2.208,28.744
		c1.306,2.3,2.832,4.434,4.466,6.376C339.497,68.219,340.966,65.398,344.194,65.186z"/>
	<path fill="#E17334" d="M378,70.742c-1.848,1.097-3.802,1.938-5.785,2.529c-5.558,1.656-11.303,1.444-15.294,0.042
		c-2.264-0.796-4.881-1.963-7.536-3.746c0.102,0.975-0.049,1.979-0.442,2.863c0.773,1.943,0.398,4.393-1.133,5.84
		c1.777,1.264,3.504,2.262,5.063,2.932c4.929,2.12,13.499,3.208,22.6,1.562c-0.833-0.892-1.352-2.067-1.305-3.347
		c0.013-0.335,0.07-0.665,0.083-1c0.066-1.81,1.027-3.404,2.478-4.283c0.284-0.809,0.769-1.533,1.438-2.086
		C378.06,71.622,378.006,71.183,378,70.742z"/>
	<path fill="#E17334" d="M417,32.269c-0.945-4.733-4.084-8.092-11.133-9.004c2.648-2.455,4.237-5.53,5.099-9.028
		c-3.085,2.344-6.466,2.849-10.21,0.628c1.535-3.146,1.683-6.06,1.053-8.844c-2.668,5.572-6.97,7.634-12.899,6.186
		c2.925-4.81,1.983-8.261-0.356-11.22c-0.454,6.879-4.706,10.271-12.104,10.773c1.242-5.474-0.887-8.558-4.908-10.299
		c3.718,6.284,1.125,11.1-5.782,14.913c-1.044-4.906-3.629-7.98-8.073-8.843c5.264,4.75,5.754,9.883,1.471,15.398
		c-1.748-4.493-5.005-6.816-9.509-7.345c6.47,4.26,7.8,9.488,5.616,15.38c-1.089-2.389-2.96-4.326-5.978-5.6
		c1.925,3.554,3.335,7.546,3.848,12.303c0.091,0.838,0.053,1.557,0.238,2.23c0.21,0.763,0.64,1.483,0.651,2.479
		c0.01,0.826-0.235,1.78-0.575,3.063c-0.153,0.584-0.223,1.265-0.478,1.984c-0.727-0.716-1.308-1.691-1.79-2.843
		c-0.595,2.575-0.508,4.793-0.549,6.876c-0.031,1.623-0.305,3.228,0.036,4.429c0.57,2.006,1.788,3.445,3.892,4.117
		c-0.06-0.467-0.056-0.947-0.001-1.436c2.009,0.868,3.961,0.532,5.877-0.654c-2.125-0.154-3.795-1.003-4.811-2.838
		c0.027-0.059,0.054-0.117,0.081-0.176c1.72,1.104,3.628,1.019,5.592,0.589c-1.846-0.217-3.23-1.334-4.288-3.094l0.098-0.174
		c1.153,0.917,2.565,1.265,4.483,0.5c-1.313-0.42-2.113-1.79-2.658-3.626c0.052-0.084,0.104-0.169,0.156-0.253
		c1.206,0.665,2.514,0.954,4.025,0.477c-1.23-0.307-1.977-1.383-2.461-2.873c0.115-0.165,0.229-0.325,0.345-0.48
		c1.011,0.457,2.313,0.277,3.77-0.531c-1.233-0.045-2.021-0.402-2.603-0.903c0.265-0.284,0.519-0.524,0.759-0.71
		c1.344-1.045,2.691-1.171,4.046-0.116c-1.811,2.599-3.046,5.17-3.61,7.714l-0.062,0.186c-1.576,4.719,2.642,9.383-3.205,15.227
		c3.246-2.403,4.123-4.492,4.253-6.438c0.777,1.651,1.9,3.291,3.399,4.911c-2.994-4.669-3.995-9.286-2.367-13.832
		c0.974-2.005,2.095-3.887,3.434-5.588c0.035,0.054,0.07,0.111,0.104,0.168c0.289,1.087,0.539,2.183,0.739,3.291
		c-0.702,0.744-1.537,1.183-2.501,1.315c0.737,0.402,1.638,0.375,2.7-0.084c0.016,0.103,0.029,0.207,0.041,0.311
		c-0.795,0.849-1.779,1.262-3.023,1.087c0.883,1.132,2.001,1.384,3.245,1.167c0.007,0.108,0.013,0.217,0.018,0.326
		c-1.086,0.729-2.262,1.042-3.497,1.053c1.016,0.627,2.193,0.754,3.531,0.378v0.147c-1.777,1.174-3.479,1.744-5.095,1.711
		c1.268,1.521,2.99,1.61,4.946,0.958c-0.006,0.061-0.014,0.124-0.02,0.187c-0.297,0.988,0.057,0.889,0.779,0.985
		c0.562,0.076,1.638,0.642,4.228-2.972c-2.489,0.397-2.067-2.607-1.199-5.967c0.635-2.45,1.472-5.155,1.776-6.544
		c0.101-0.461,0.271-1.007,0.043-1.554c-0.23-0.546-0.713-1.039-1.068-1.601c-1.156-1.841-0.9-4.948,0.084-6.806
		c1.071-2.024,3.028-3.118,4.121-3.565c1.826-0.749,5.751-0.4,7.641,1.903c2.071,2.53,1.989,7.223,1.037,10.795
		c-0.873,3.28-3.473,8.894-7.889,11.753c3.395,0.048,6.702-1.769,9.941-4.987c-0.197,7.172-2.387,12.534-5.618,16.424
		c4.243,0.804,4.922,6.491,2.04,8.863c0.493,2.003-0.12,4.321-1.846,5.533c-0.012,0.068-0.012,0.141-0.026,0.209
		c3.464-1.336,6.864-3.139,10.031-5.509c7.395-5.535,13.519-14.143,16.207-27.014c1.919,1.181,3.413,2.95,3.884,5.214h0.002
		c2.654-7.591,0.023-14.548-4.78-21C412.25,31.155,414.787,31.222,417,32.269z M357.224,40.664
		c-2.289-2.511,1.553-5.001,1.182-8.621C359.818,35.346,359.938,38.342,357.224,40.664z"/>
</g>
<g id="Capa_1">
	<title>Tarjetas molonas</title>
	<desc>Created with Sketch.</desc>
	<g id="Tablet_x2B_">
		<g id="_x30_0---App---Tablet_x2B_" transform="translate(-177.000000, -351.000000)">
			<g id="Group-4" transform="translate(175.000000, 348.000000)">
				<g id="Tarjetas-molonas">
					<g id="Group-2">
						
							<g id="Group" transform="translate(63.191223, 54.437060) rotate(-10.000000) translate(-63.191223, -54.437060) translate(7.318166, 11.294573)">
							<path id="Path" fill="#A2DEAF" d="M101.28,2.285c2.868,0,5.307,1.004,7.315,3.012c2.007,2.008,3.011,4.446,3.011,7.314
								l0,61.959c0,2.868-1.004,5.307-3.012,7.314c-2.008,2.008-4.446,3.012-7.314,3.012l-89.495,0
								c-2.868,0-5.307-1.004-7.315-3.012c-2.007-2.008-3.012-4.446-3.012-7.314l0-61.959c0-2.868,1.004-5.306,3.012-7.314
								c2.008-2.008,4.446-3.012,7.314-3.012L101.28,2.285z"/>
							<path id="Path-Copy" fill="#114E4E" d="M100.133,0.646c2.868,0,5.307,1.004,7.315,3.012c2.008,2.008,3.012,4.446,3.012,7.315
								l0,61.958c0,2.869-1.004,5.307-3.012,7.315c-2.008,2.007-4.446,3.011-7.315,3.011l-89.495,0
								c-2.868,0-5.307-1.003-7.315-3.011c-2.007-2.008-3.012-4.446-3.011-7.315l0-61.958c0-2.869,1.004-5.307,3.012-7.315
								C5.331,1.65,7.77,0.646,10.638,0.646L100.133,0.646z"/>
							<path id="Path_1_" fill="#FFFFFF" d="M103.575,72.931l0-61.958c0-1.004-0.323-1.829-0.968-2.474
								c-0.645-0.645-1.47-0.968-2.474-0.968l-89.495,0c-1.004,0-1.828,0.323-2.474,0.968c-0.645,0.645-0.968,1.47-0.968,2.474
								l0,61.958c0,1.004,0.323,1.829,0.968,2.474c0.645,0.645,1.47,0.967,2.474,0.968l89.495,0
								c1.004,0.001,1.828-0.322,2.474-0.968C103.253,74.759,103.575,73.935,103.575,72.931z"/>
							<path id="Combined-Shape" fill="#E17334" d="M71.736,55.72c-0.717-0.001-1.327-0.251-1.829-0.754
								c-0.502-0.501-0.753-1.111-0.753-1.828l0-1.721c0-0.717,0.251-1.327,0.753-1.829c0.502-0.502,1.111-0.753,1.829-0.754
								l22.374,0c0.717,0,1.327,0.251,1.829,0.753s0.753,1.112,0.753,1.829l0,1.721c0,0.717-0.251,1.326-0.753,1.829
								s-1.112,0.753-1.828,0.753L71.736,55.72z M71.736,41.952c-0.717,0-1.327-0.251-1.829-0.753
								c-0.502-0.502-0.753-1.111-0.753-1.828l0-1.721c0-0.717,0.251-1.327,0.753-1.829c0.502-0.502,1.111-0.753,1.828-0.753
								l22.374,0c0.717,0,1.327,0.251,1.829,0.753s0.753,1.112,0.753,1.828l0,1.721c0,0.717-0.251,1.327-0.753,1.829
								c-0.502,0.502-1.112,0.753-1.828,0.753L71.736,41.952z M71.736,28.183c-0.717,0-1.327-0.251-1.829-0.753
								c-0.502-0.502-0.753-1.111-0.753-1.828l0-1.721c0-0.717,0.251-1.327,0.753-1.829c0.502-0.502,1.111-0.753,1.828-0.753
								l22.374,0c0.717,0,1.327,0.251,1.829,0.753c0.502,0.502,0.753,1.112,0.753,1.828l0,1.721c0,0.717-0.251,1.327-0.753,1.829
								c-0.502,0.502-1.112,0.753-1.828,0.753L71.736,28.183z"/>
							<path id="Combined-Shape_1_" fill="#A2DEAF" d="M51.513,42.382c3.729,1.147,6.598,3.37,8.606,6.669
								c1.434,2.582,2.151,5.235,2.151,7.96l0,3.012c0.001,2.581-0.932,4.805-2.796,6.669c-1.865,1.865-4.088,2.797-6.669,2.796
								l-29.258-0.001c-2.581,0.001-4.805-0.932-6.669-2.796c-1.865-1.865-2.797-4.088-2.797-6.669l0-3.013
								c0-2.725,0.717-5.378,2.152-7.959c2.008-3.298,4.876-5.521,8.605-6.669c-2.582-3.156-3.873-6.742-3.872-10.757
								c0-4.733,1.685-8.785,5.056-12.155c3.37-3.37,7.422-5.056,12.155-5.056c4.733,0,8.785,1.685,12.155,5.056
								c3.371,3.371,5.056,7.422,5.056,12.155C55.386,35.641,54.095,39.227,51.513,42.382z M38.175,21.299
								c-2.869,0-5.307,1.004-7.315,3.012c-2.008,2.008-3.012,4.446-3.012,7.315c0,2.868,1.004,5.306,3.012,7.314
								c2.008,2.008,4.446,3.012,7.314,3.012c2.869,0,5.307-1.004,7.315-3.011c2.008-2.008,3.012-4.446,3.012-7.315
								c0-2.868-1.004-5.307-3.012-7.315C43.481,22.303,41.044,21.299,38.175,21.299z M55.386,60.023v-3.012
								c0-1.864-0.574-3.55-1.721-5.055c-1.147-1.506-2.653-2.546-4.518-3.12l-4.518-1.29c-2.008,0.861-4.159,1.291-6.453,1.291
								c-2.295,0-4.447-0.43-6.454-1.291l-4.518,1.291c-1.865,0.574-3.371,1.614-4.518,3.119c-1.147,1.506-1.721,3.191-1.721,5.055
								l0,3.013c0,0.717,0.251,1.326,0.753,1.828s1.112,0.753,1.829,0.753l29.258,0c0.717,0,1.327-0.252,1.829-0.754
								C55.134,61.35,55.386,60.74,55.386,60.023z"/>
						</g>
						<path id="Awesome" fill="#A2DEAF" d="M138.226,53.373c-1.396,0-2.622-0.113-3.678-0.339c-1.056-0.227-1.971-0.773-2.744-1.641
							c-0.773-0.868-1.16-2.207-1.16-4.017c0-2.527,0.764-5.922,2.292-10.185c1.527-4.262,3.536-8.543,6.026-12.844
							c-1.886,0.113-3.376,0.396-4.47,0.849c-1.094,0.453-1.811,1.15-2.15,2.094c0.151,0,0.311,0.188,0.481,0.565
							c0.17,0.377,0.254,0.773,0.254,1.188c0,0.679-0.302,1.216-0.905,1.612c-0.604,0.396-1.358,0.594-2.263,0.594
							c-1.056,0-1.905-0.283-2.546-0.849s-0.962-1.377-0.962-2.433c0-1.282,0.5-2.452,1.5-3.508s2.386-1.896,4.159-2.518
							c1.772-0.622,3.734-0.934,5.884-0.934c0.792,0,1.773,0.057,2.942,0.17c3.093-4.904,6.365-8.912,9.817-12.023
							s6.743-4.667,9.873-4.667c1.811,0,3.301,0.264,4.47,0.792l-8.883,41.643h-8.147l4.356-20.539
							c-1.396-0.642-2.678-1.113-3.847-1.415s-2.414-0.509-3.734-0.623c-2.15,4.64-3.914,9.383-5.291,14.23
							c-1.376,4.847-2.065,8.723-2.065,11.627C137.434,51.637,137.698,52.693,138.226,53.373z M156.162,8.504
							c-1.622,0.868-3.31,2.48-5.064,4.837s-3.461,5.215-5.121,8.572c2.716,0.528,5.017,1.188,6.903,1.98L156.162,8.504z
							 M169.288,47.262c-1.811,0-3.272-0.566-4.385-1.697c-1.113-1.132-1.669-2.829-1.669-5.092c0-0.943,0.151-2.169,0.453-3.678
							l3.847-18.162h8.147l-4.074,19.237c-0.113,0.453-0.169,0.924-0.169,1.415c0,1.659,0.565,2.489,1.697,2.489
							c1.056,0,1.961-0.443,2.716-1.33s1.358-2.103,1.811-3.649l3.848-18.162h8.147l-4.074,19.237
							c-0.188,0.943-0.283,1.622-0.283,2.037c0,1.245,0.642,1.867,1.924,1.867c1.735,0,3.348-1.094,4.838-3.282
							c1.49-2.188,2.688-4.791,3.593-7.808s1.358-5.62,1.358-7.808c-0.076,0.189-0.321,0.33-0.735,0.424
							c-0.415,0.095-0.773,0.142-1.075,0.142c-0.641,0-1.141-0.302-1.5-0.905s-0.538-1.264-0.538-1.98
							c0-0.905,0.292-1.641,0.877-2.207c0.585-0.566,1.462-0.849,2.631-0.849c1.245,0,2.15,0.462,2.716,1.386
							c0.565,0.924,0.849,2.103,0.849,3.536c0,3.395-0.585,7.025-1.754,10.892c-1.169,3.867-2.961,7.158-5.375,9.874
							s-5.413,4.074-8.996,4.074c-1.848,0-3.357-0.396-4.526-1.188c-1.169-0.792-1.924-1.98-2.263-3.565
							C175.21,45.678,172.532,47.262,169.288,47.262z M209.177,47.262c-2.791,0-4.96-0.726-6.506-2.178
							c-1.547-1.452-2.32-3.725-2.32-6.818c0-2.603,0.509-5.47,1.527-8.601c1.019-3.13,2.678-5.837,4.979-8.119
							c2.301-2.282,5.225-3.423,8.77-3.423c4.15,0,6.225,1.811,6.225,5.432c0,2.112-0.604,4.055-1.811,5.828
							s-2.811,3.197-4.81,4.272s-4.13,1.688-6.394,1.839c-0.075,1.131-0.113,1.886-0.113,2.263c0,1.848,0.321,3.103,0.962,3.763
							c0.642,0.66,1.679,0.99,3.112,0.99c2.037,0,3.781-0.471,5.233-1.414c1.452-0.943,3.046-2.376,4.781-4.3h1.923
							C220.55,43.772,215.363,47.262,209.177,47.262z M209.291,32.777c1.396-0.076,2.725-0.566,3.989-1.471s2.282-2.056,3.056-3.452
							c0.772-1.396,1.159-2.867,1.159-4.413s-0.471-2.32-1.414-2.32c-1.357,0-2.688,1.188-3.988,3.564
							C210.79,27.063,209.856,29.76,209.291,32.777z M229.264,47.262c-1.811,0-3.338-0.349-4.583-1.047
							c-1.245-0.698-2.169-1.603-2.772-2.716s-0.905-2.272-0.905-3.479c0-1.245,0.292-2.329,0.877-3.253s1.292-1.594,2.122-2.009
							c1.471-2.64,2.753-5.309,3.848-8.006c1.094-2.697,2.131-5.611,3.111-8.742l8.374-1.132c0.188,4.829,0.509,10.053,0.962,15.673
							c0.188,2.263,0.283,3.904,0.283,4.923c0,0.867-0.076,1.584-0.227,2.15c1.772-1.019,3.131-1.961,4.073-2.829h2.376
							c-2.414,2.792-5.299,5.149-8.656,7.073c-1.094,1.169-2.442,2.027-4.045,2.574C232.498,46.988,230.885,47.262,229.264,47.262z
							 M227.453,42.792c1.396,0,2.564-0.415,3.508-1.245c0.943-0.83,1.414-2.168,1.414-4.017c0-1.131-0.113-2.716-0.34-4.752
							c-0.377-4.3-0.621-7.186-0.734-8.657c-0.906,2.98-2.434,6.544-4.584,10.693c0.868,0.453,1.302,1.113,1.302,1.98
							c0,0.717-0.235,1.358-0.707,1.924s-1.065,0.849-1.782,0.849c-0.793,0-1.302-0.245-1.527-0.736c0,1.358,0.273,2.358,0.82,2.999
							S226.246,42.792,227.453,42.792z M252.688,47.148c-2.791,0-4.998-0.716-6.619-2.15c-1.623-1.433-2.434-3.697-2.434-6.79
							c0-2.565,0.528-5.413,1.584-8.544c1.057-3.13,2.754-5.837,5.093-8.119s5.28-3.423,8.826-3.423
							c4.828,0,7.242,3.018,7.242,9.053v0.057c0.113,0.038,0.321,0.057,0.622,0.057c1.245,0,2.679-0.33,4.301-0.99
							s3.093-1.462,4.413-2.405l0.509,1.528c-1.094,1.169-2.518,2.159-4.271,2.97s-3.668,1.386-5.742,1.726
							c-0.303,3.432-1.076,6.431-2.32,8.996s-2.848,4.545-4.81,5.941S254.988,47.148,252.688,47.148z M254.951,42.057
							c0.904,0,1.811-0.519,2.716-1.556c0.905-1.038,1.697-2.452,2.376-4.244c0.68-1.792,1.17-3.781,1.471-5.969
							c-1.018-0.226-1.527-1.019-1.527-2.376c0-1.546,0.585-2.565,1.754-3.055c-0.075-1.245-0.264-2.103-0.565-2.574
							c-0.302-0.472-0.83-0.708-1.585-0.708c-1.244,0-2.451,0.905-3.621,2.716c-1.169,1.811-2.111,3.979-2.828,6.507
							s-1.075,4.753-1.075,6.677c0,1.811,0.208,3.027,0.622,3.649C253.103,41.745,253.857,42.057,254.951,42.057z M303.667,47.262
							c-2.302,0-3.989-0.613-5.064-1.839s-1.612-2.744-1.612-4.555c0-0.792,0.094-1.688,0.283-2.688
							c0.188-1,0.387-1.971,0.594-2.914c0.207-0.943,0.349-1.546,0.424-1.811c0.303-1.32,0.585-2.622,0.85-3.904
							c0.264-1.283,0.396-2.32,0.396-3.112c0-1.924-0.679-2.886-2.037-2.886c-0.98,0-1.849,0.481-2.603,1.443
							s-1.357,2.216-1.811,3.762l-3.848,18.163h-8.147l4.13-19.52c0.113-0.453,0.17-0.924,0.17-1.415
							c0-1.659-0.565-2.489-1.697-2.489c-1.056,0-1.971,0.481-2.744,1.443s-1.386,2.235-1.838,3.819l-3.848,18.163h-8.148
							l5.998-28.29h8.147l-0.622,2.942c1.924-2.15,4.225-3.225,6.902-3.225c3.319,0,5.262,1.622,5.828,4.866
							c2.074-3.207,4.695-4.81,7.864-4.81c1.924,0,3.451,0.528,4.583,1.584s1.697,2.659,1.697,4.809
							c0,1.094-0.132,2.311-0.396,3.649c-0.265,1.339-0.642,2.971-1.132,4.894c-0.302,1.169-0.575,2.311-0.82,3.423
							s-0.368,1.99-0.368,2.631c0,0.754,0.17,1.339,0.51,1.754c0.339,0.415,0.924,0.623,1.754,0.623
							c1.132,0,2.037-0.405,2.716-1.216s1.357-2.065,2.037-3.763h2.376c-1.396,4.149-3.008,6.931-4.838,8.346
							C307.523,46.555,305.628,47.262,303.667,47.262z M319.792,47.262c-2.754,0-4.903-0.726-6.45-2.178s-2.319-3.725-2.319-6.818
							c0-2.603,0.509-5.47,1.527-8.601c1.019-3.13,2.678-5.837,4.979-8.119c2.302-2.282,5.225-3.423,8.771-3.423
							c4.149,0,6.224,1.811,6.224,5.432c0,2.112-0.604,4.055-1.811,5.828s-2.811,3.197-4.81,4.272s-4.13,1.688-6.394,1.839
							c-0.075,0.83-0.113,1.396-0.113,1.697c0,3.131,1.17,4.696,3.509,4.696c1.056,0,2.188-0.283,3.395-0.849
							c1.207-0.566,2.301-1.283,3.281-2.15C328.562,44.471,325.299,47.262,319.792,47.262z M319.905,32.777
							c1.434-0.038,2.781-0.509,4.045-1.415s2.282-2.065,3.056-3.48c0.773-1.414,1.16-2.895,1.16-4.441s-0.472-2.32-1.415-2.32
							c-1.32,0-2.631,1.198-3.932,3.593C321.518,27.11,320.546,29.797,319.905,32.777z"/>
						<path id="profile-cards" fill="#A2DEAF" d="M147.166,64.632h8.147l-0.905,4.243c1.886-1.621,4.093-2.433,6.62-2.433
							c2.113,0,3.791,0.698,5.036,2.094c1.245,1.396,1.867,3.678,1.867,6.847c0,2.979-0.434,5.987-1.301,9.023
							c-0.868,3.037-2.338,5.621-4.413,7.752s-4.81,3.197-8.204,3.197c-2.414,0-4.017-0.68-4.81-2.037l-2.942,13.805l-8.544,2.037
							L147.166,64.632z M152.258,90.433c1.811,0,3.31-0.849,4.498-2.546c1.188-1.697,2.056-3.725,2.603-6.082
							c0.547-2.358,0.82-4.555,0.82-6.592c0-3.131-0.943-4.697-2.829-4.697c-0.679,0-1.367,0.246-2.065,0.736
							s-1.311,1.169-1.839,2.037l-3.338,15.842C150.409,89.999,151.126,90.433,152.258,90.433z M173.192,66.726h8.147l-0.735,3.508
							c1.282-1.132,2.442-1.999,3.479-2.603c1.038-0.604,2.16-0.905,3.367-0.905s2.159,0.415,2.857,1.245
							c0.698,0.829,1.046,1.829,1.046,2.998c0,1.094-0.358,2.056-1.075,2.886c-0.717,0.83-1.716,1.245-2.999,1.245
							c-0.83,0-1.386-0.198-1.669-0.594c-0.283-0.396-0.5-0.973-0.651-1.727c-0.113-0.49-0.226-0.849-0.339-1.074
							c-0.113-0.227-0.321-0.34-0.623-0.34c-0.792,0-1.461,0.16-2.008,0.48s-1.254,0.877-2.122,1.67l-4.526,21.5h-8.147
							L173.192,66.726z M198.88,95.242c-2.792,0-4.998-0.717-6.62-2.15s-2.433-3.696-2.433-6.789c0-2.565,0.528-5.414,1.584-8.544
							c1.056-3.131,2.753-5.837,5.092-8.12c2.339-2.281,5.281-3.422,8.827-3.422c4.828,0,7.242,3.018,7.242,9.053v0.057
							c0.113,0.037,0.32,0.057,0.623,0.057c1.244,0,2.678-0.33,4.299-0.99c1.623-0.66,3.094-1.463,4.414-2.405l0.509,1.528
							c-1.094,1.169-2.518,2.158-4.271,2.97s-3.669,1.386-5.743,1.726c-0.302,3.433-1.074,6.432-2.32,8.996
							c-1.245,2.565-2.848,4.546-4.809,5.941S201.181,95.242,198.88,95.242z M201.143,90.149c0.905,0,1.811-0.519,2.716-1.556
							s1.697-2.452,2.376-4.244c0.679-1.791,1.169-3.781,1.471-5.969c-1.019-0.227-1.528-1.019-1.528-2.377
							c0-1.546,0.584-2.564,1.754-3.055c-0.075-1.244-0.264-2.104-0.566-2.574c-0.302-0.472-0.83-0.707-1.584-0.707
							c-1.245,0-2.452,0.904-3.621,2.715c-1.169,1.811-2.112,3.98-2.829,6.508s-1.075,4.752-1.075,6.676
							c0,1.811,0.208,3.027,0.623,3.649S200.049,90.149,201.143,90.149z M210.762,109.16c-2.075,0-3.763-0.574-5.064-1.725
							c-1.301-1.151-1.952-2.688-1.952-4.611c0-1.585,0.453-2.887,1.358-3.904c0.905-1.019,2.018-1.83,3.338-2.434
							s3.017-1.244,5.092-1.924l6.28-29.761c1.019-4.677,2.716-7.874,5.092-9.59c2.377-1.716,5.093-2.575,8.148-2.575
							c2.828,0,5.224,0.472,7.186,1.415c1.961,0.943,2.941,2.641,2.941,5.092c0,1.585-0.424,2.744-1.272,3.479
							c-0.849,0.736-1.915,1.104-3.196,1.104c-0.981,0-1.793-0.236-2.434-0.707c-0.641-0.472-0.962-1.254-0.962-2.348
							c0-0.717,0.179-1.358,0.538-1.924c0.357-0.566,0.82-0.85,1.386-0.85c0.265,0,0.415,0.02,0.452,0.057
							c-0.037-0.754-0.33-1.32-0.877-1.697c-0.547-0.377-1.291-0.565-2.234-0.565c-1.66,0-2.989,0.604-3.988,1.811
							c-1,1.207-1.67,2.734-2.01,4.583l-0.961,4.64h4.525l-0.452,2.263h-4.526l-6.45,30.554c-0.755,3.546-2.056,6.035-3.903,7.469
							C214.967,108.443,212.949,109.16,210.762,109.16z M236.166,95.355c-1.811,0-3.271-0.566-4.385-1.697
							c-1.113-1.133-1.669-2.83-1.669-5.093c0-0.942,0.151-2.169,0.452-3.678l3.848-18.162h8.147l-4.073,19.237
							c-0.151,0.565-0.227,1.169-0.227,1.811c0,0.754,0.18,1.292,0.537,1.612c0.359,0.321,0.953,0.481,1.783,0.481
							c1.094,0,2.111-0.463,3.055-1.387s1.622-2.121,2.037-3.593h2.376c-1.396,4.073-3.187,6.837-5.375,8.289
							C240.485,94.629,238.316,95.355,236.166,95.355z M209.177,104.125c0.642,0,1.273-0.358,1.895-1.075
							c0.623-0.717,1.085-1.829,1.387-3.338l0.68-3.282c-1.924,0.604-3.452,1.367-4.583,2.292c-1.132,0.924-1.698,1.971-1.698,3.14
							c0,0.83,0.264,1.415,0.792,1.754C208.178,103.955,208.687,104.125,209.177,104.125z M251.273,95.355
							c-1.811,0-3.272-0.566-4.385-1.697c-1.113-1.133-1.67-2.83-1.67-5.093c0-0.942,0.151-2.169,0.453-3.678l6.054-28.347
							l8.374-1.132l-6.507,30.554c-0.151,0.565-0.226,1.169-0.226,1.811c0,0.754,0.179,1.292,0.537,1.612
							c0.358,0.321,0.952,0.481,1.782,0.481c1.094,0,2.112-0.463,3.056-1.387c0.942-0.924,1.621-2.121,2.037-3.593h2.376
							c-1.396,4.073-3.188,6.837-5.376,8.289C255.592,94.629,253.424,95.355,251.273,95.355z M268.756,95.355
							c-2.753,0-4.902-0.727-6.449-2.179s-2.32-3.726-2.32-6.817c0-2.604,0.51-5.471,1.527-8.601c1.02-3.131,2.679-5.837,4.979-8.12
							c2.302-2.281,5.224-3.422,8.771-3.422c4.148,0,6.224,1.811,6.224,5.432c0,2.111-0.604,4.055-1.812,5.827
							s-2.81,3.196-4.809,4.272c-1.999,1.074-4.131,1.688-6.394,1.838c-0.075,0.83-0.113,1.396-0.113,1.697
							c0,3.131,1.169,4.697,3.508,4.697c1.057,0,2.188-0.283,3.396-0.85c1.207-0.565,2.301-1.282,3.281-2.15
							C277.526,92.564,274.264,95.355,268.756,95.355z M268.869,80.871c1.434-0.038,2.782-0.51,4.046-1.415s2.282-2.065,3.056-3.479
							c0.773-1.415,1.16-2.896,1.16-4.441c0-1.547-0.473-2.32-1.415-2.32c-1.32,0-2.631,1.197-3.933,3.593
							C270.482,75.203,269.511,77.891,268.869,80.871z M283.58,77.984h11.316l-0.962,4.471h-11.372L283.58,77.984z M305.986,95.355
							c-2.791,0-4.96-0.727-6.507-2.179c-1.546-1.452-2.319-3.726-2.319-6.817c0-2.604,0.518-5.471,1.556-8.601
							c1.037-3.131,2.697-5.837,4.979-8.12c2.282-2.281,5.178-3.422,8.686-3.422c2.264,0,3.876,0.49,4.838,1.471
							s1.442,2.225,1.442,3.734c0,1.32-0.283,2.338-0.849,3.055s-1.282,1.075-2.15,1.075c-0.641,0-1.301-0.226-1.979-0.679
							c0.452-1.245,0.679-2.357,0.679-3.338c0-0.717-0.132-1.283-0.396-1.697c-0.264-0.416-0.66-0.623-1.188-0.623
							c-1.132,0-2.264,0.924-3.396,2.772c-1.131,1.849-2.056,4.093-2.772,6.733s-1.074,5.017-1.074,7.129
							c0,1.848,0.32,3.103,0.961,3.763c0.642,0.66,1.679,0.99,3.112,0.99c2.037,0,3.781-0.472,5.233-1.415s3.046-2.376,4.781-4.3
							h1.924C317.359,91.866,312.173,95.355,305.986,95.355z M326.412,95.355c-2.15,0-3.942-0.736-5.375-2.207
							c-1.434-1.471-2.15-3.771-2.15-6.902c0-2.792,0.557-5.725,1.669-8.799c1.113-3.074,2.772-5.677,4.979-7.809
							c2.206-2.131,4.837-3.196,7.893-3.196c1.547,0,2.697,0.265,3.451,0.792c0.755,0.528,1.132,1.227,1.132,2.094v0.396
							l0.622-2.999h8.147l-4.073,19.237c-0.151,0.565-0.227,1.169-0.227,1.811c0,1.622,0.773,2.433,2.32,2.433
							c1.056,0,1.971-0.49,2.744-1.471c0.772-0.981,1.386-2.264,1.839-3.848h2.376c-1.396,4.073-3.121,6.837-5.177,8.289
							s-4.121,2.179-6.196,2.179c-1.584,0-2.856-0.443-3.818-1.33s-1.537-2.178-1.726-3.876c-1.095,1.547-2.311,2.801-3.65,3.763
							C329.854,94.874,328.26,95.355,326.412,95.355z M330.09,89.867c0.942,0,1.876-0.443,2.801-1.33
							c0.924-0.887,1.556-2.104,1.896-3.649l2.716-12.787c0-0.49-0.189-0.972-0.566-1.442c-0.377-0.473-0.962-0.708-1.754-0.708
							c-1.509,0-2.866,0.878-4.073,2.632s-2.15,3.865-2.829,6.336c-0.68,2.471-1.019,4.649-1.019,6.535
							c0,1.887,0.273,3.094,0.82,3.621C328.628,89.603,329.298,89.867,330.09,89.867z M353.23,66.726h8.148l-0.736,3.508
							c1.283-1.132,2.442-1.999,3.48-2.603c1.037-0.604,2.159-0.905,3.366-0.905s2.159,0.415,2.857,1.245
							c0.697,0.829,1.047,1.829,1.047,2.998c0,1.094-0.358,2.056-1.075,2.886s-1.717,1.245-2.999,1.245
							c-0.83,0-1.386-0.198-1.669-0.594c-0.283-0.396-0.5-0.973-0.65-1.727c-0.113-0.49-0.227-0.849-0.34-1.074
							c-0.113-0.227-0.32-0.34-0.622-0.34c-0.793,0-1.462,0.16-2.009,0.48s-1.254,0.877-2.122,1.67l-4.526,21.5h-8.147
							L353.23,66.726z M377.447,95.355c-2.15,0-3.941-0.736-5.375-2.207s-2.15-3.771-2.15-6.902c0-2.792,0.557-5.725,1.669-8.799
							c1.113-3.074,2.772-5.677,4.979-7.809c2.207-2.131,4.838-3.196,7.893-3.196c1.547,0,2.697,0.265,3.452,0.792
							c0.754,0.528,1.131,1.227,1.131,2.094v0.227l2.772-13.014l8.374-1.132l-6.507,30.554c-0.15,0.565-0.226,1.169-0.226,1.811
							c0,0.754,0.179,1.292,0.537,1.612c0.358,0.321,0.952,0.481,1.782,0.481c1.056,0,1.971-0.453,2.744-1.358
							s1.386-2.112,1.839-3.621h2.376c-2.301,6.752-6.092,10.128-11.372,10.128c-1.547,0-2.801-0.415-3.763-1.245
							c-0.962-0.829-1.556-2.036-1.782-3.621c-0.98,1.509-2.159,2.754-3.536,3.734C380.908,94.865,379.296,95.355,377.447,95.355z
							 M381.125,89.867c0.905,0,1.82-0.416,2.744-1.245c0.924-0.83,1.556-1.98,1.896-3.452v-0.282l2.772-12.957
							c-0.34-1.32-1.113-1.98-2.32-1.98c-1.509,0-2.866,0.878-4.073,2.632s-2.15,3.865-2.829,6.336s-1.019,4.649-1.019,6.535
							c0,1.887,0.273,3.094,0.82,3.621C379.663,89.603,380.333,89.867,381.125,89.867z M406.813,95.355
							c-1.811,0-3.338-0.35-4.583-1.047c-1.245-0.698-2.169-1.604-2.772-2.717c-0.604-1.112-0.905-2.271-0.905-3.479
							c0-1.245,0.292-2.33,0.877-3.254s1.292-1.594,2.122-2.009c1.471-2.64,2.753-5.31,3.847-8.006
							c1.095-2.697,2.132-5.61,3.112-8.741l8.374-1.133c0.188,4.829,0.509,10.053,0.962,15.674c0.188,2.263,0.283,3.904,0.283,4.922
							c0,2.301-0.585,4.188-1.755,5.658c-1.169,1.471-2.611,2.527-4.328,3.168C410.33,95.034,408.585,95.355,406.813,95.355z
							 M405.002,90.885c1.396,0,2.564-0.414,3.508-1.244s1.415-2.169,1.415-4.018c0-1.131-0.113-2.716-0.34-4.752
							c-0.377-4.301-0.622-7.187-0.735-8.657c-0.905,2.979-2.434,6.544-4.583,10.693c0.867,0.452,1.301,1.112,1.301,1.98
							c0,0.717-0.235,1.358-0.707,1.924s-1.065,0.849-1.782,0.849c-0.792,0-1.302-0.245-1.527-0.735c0,1.357,0.273,2.357,0.82,2.999
							C402.918,90.564,403.795,90.885,405.002,90.885z"/>
						<path id="Awesome_1_" fill="#114E4E" d="M136.811,51.958c-1.396,0-2.622-0.113-3.678-0.339
							c-1.056-0.227-1.971-0.773-2.744-1.641c-0.773-0.868-1.16-2.207-1.16-4.017c0-2.527,0.764-5.922,2.292-10.185
							c1.528-4.262,3.536-8.543,6.026-12.844c-1.886,0.113-3.376,0.396-4.47,0.849c-1.094,0.453-1.811,1.151-2.15,2.094
							c0.151,0,0.312,0.188,0.481,0.566c0.17,0.377,0.255,0.773,0.255,1.188c0,0.679-0.302,1.216-0.905,1.612
							c-0.604,0.396-1.358,0.594-2.264,0.594c-1.056,0-1.905-0.283-2.546-0.849s-0.962-1.377-0.962-2.433
							c0-1.282,0.5-2.452,1.5-3.508s2.386-1.896,4.159-2.518c1.773-0.622,3.734-0.934,5.884-0.934c0.792,0,1.773,0.057,2.942,0.17
							c3.093-4.903,6.365-8.911,9.816-12.023c3.452-3.112,6.743-4.668,9.874-4.668c1.811,0,3.3,0.264,4.47,0.792l-8.883,41.643
							H146.6l4.356-20.539c-1.396-0.641-2.678-1.113-3.847-1.415s-2.414-0.509-3.734-0.623c-2.15,4.64-3.914,9.383-5.29,14.23
							c-1.377,4.847-2.065,8.723-2.065,11.627C136.019,50.223,136.283,51.279,136.811,51.958z M154.747,7.09
							c-1.622,0.868-3.31,2.48-5.064,4.837c-1.754,2.358-3.461,5.215-5.121,8.572c2.716,0.528,5.017,1.188,6.903,1.98L154.747,7.09z
							 M167.874,45.847c-1.811,0-3.272-0.566-4.385-1.697c-1.113-1.132-1.669-2.829-1.669-5.092c0-0.943,0.151-2.169,0.453-3.678
							l3.847-18.162h8.148l-4.074,19.237c-0.113,0.453-0.169,0.924-0.169,1.415c0,1.66,0.566,2.489,1.697,2.489
							c1.056,0,1.961-0.443,2.716-1.33c0.754-0.886,1.358-2.103,1.811-3.649l3.848-18.162h8.147l-4.074,19.237
							c-0.188,0.943-0.283,1.622-0.283,2.037c0,1.245,0.641,1.867,1.923,1.867c1.735,0,3.348-1.094,4.838-3.282
							c1.49-2.188,2.688-4.79,3.593-7.808c0.905-3.018,1.358-5.62,1.358-7.808c-0.076,0.189-0.321,0.33-0.735,0.425
							c-0.415,0.094-0.773,0.141-1.075,0.141c-0.641,0-1.141-0.302-1.5-0.905s-0.538-1.264-0.538-1.98
							c0-0.905,0.292-1.641,0.877-2.207c0.585-0.565,1.462-0.849,2.631-0.849c1.245,0,2.15,0.462,2.716,1.386
							s0.849,2.103,0.849,3.536c0,3.395-0.584,7.025-1.754,10.892c-1.169,3.866-2.961,7.157-5.375,9.873
							c-2.415,2.716-5.413,4.074-8.997,4.074c-1.848,0-3.357-0.396-4.526-1.188s-1.924-1.98-2.263-3.564
							C173.796,44.263,171.118,45.847,167.874,45.847z M207.763,45.847c-2.791,0-4.96-0.726-6.506-2.178
							c-1.547-1.452-2.32-3.725-2.32-6.818c0-2.603,0.509-5.469,1.527-8.6c1.019-3.131,2.678-5.837,4.979-8.12
							c2.301-2.282,5.224-3.423,8.77-3.423c4.149,0,6.225,1.811,6.225,5.432c0,2.112-0.604,4.055-1.811,5.828
							s-2.811,3.197-4.811,4.272c-1.998,1.075-4.13,1.688-6.393,1.839c-0.075,1.131-0.113,1.886-0.113,2.263
							c0,1.848,0.321,3.103,0.962,3.763c0.642,0.66,1.679,0.99,3.113,0.99c2.036,0,3.781-0.472,5.232-1.415
							c1.453-0.943,3.047-2.376,4.781-4.3h1.924C219.136,42.358,213.949,45.847,207.763,45.847z M207.876,31.363
							c1.396-0.076,2.726-0.566,3.989-1.471s2.281-2.056,3.055-3.451c0.773-1.396,1.16-2.867,1.16-4.414s-0.471-2.32-1.414-2.32
							c-1.358,0-2.688,1.188-3.989,3.564C209.376,25.648,208.442,28.345,207.876,31.363z M227.85,45.847
							c-1.812,0-3.339-0.349-4.584-1.046c-1.244-0.698-2.168-1.604-2.771-2.716s-0.906-2.272-0.906-3.479
							c0-1.245,0.293-2.329,0.877-3.253c0.585-0.924,1.293-1.594,2.122-2.009c1.472-2.64,2.753-5.309,3.848-8.006
							c1.094-2.697,2.131-5.611,3.112-8.742l8.373-1.131c0.189,4.828,0.51,10.052,0.962,15.672c0.188,2.263,0.283,3.904,0.283,4.922
							c0,0.868-0.075,1.584-0.227,2.15c1.772-1.019,3.131-1.961,4.073-2.829h2.377c-2.414,2.792-5.299,5.149-8.656,7.073
							c-1.094,1.169-2.443,2.027-4.046,2.574S229.471,45.847,227.85,45.847z M226.039,41.377c1.395,0,2.564-0.415,3.508-1.245
							c0.942-0.83,1.414-2.169,1.414-4.018c0-1.131-0.113-2.716-0.34-4.752c-0.377-4.3-0.622-7.186-0.735-8.657
							c-0.905,2.979-2.433,6.544-4.583,10.693c0.867,0.453,1.301,1.113,1.301,1.98c0,0.717-0.235,1.358-0.707,1.924
							c-0.471,0.566-1.065,0.849-1.781,0.849c-0.793,0-1.302-0.245-1.528-0.735c0,1.358,0.273,2.357,0.82,2.999
							S224.831,41.377,226.039,41.377z M251.273,45.734c-2.791,0-4.998-0.716-6.62-2.15s-2.433-3.696-2.433-6.79
							c0-2.565,0.527-5.413,1.584-8.543s2.754-5.837,5.092-8.12c2.339-2.282,5.281-3.423,8.826-3.423
							c4.829,0,7.243,3.018,7.243,9.053v0.057c0.112,0.038,0.32,0.057,0.622,0.057c1.245,0,2.678-0.33,4.301-0.99
							c1.621-0.66,3.092-1.461,4.412-2.405l0.51,1.528c-1.094,1.169-2.518,2.16-4.271,2.97c-1.754,0.811-3.668,1.386-5.743,1.726
							c-0.302,3.432-1.075,6.431-2.319,8.996c-1.245,2.565-2.848,4.545-4.81,5.941C255.705,45.036,253.574,45.734,251.273,45.734z
							 M253.536,40.642c0.905,0,1.812-0.519,2.716-1.556c0.906-1.037,1.697-2.452,2.377-4.244c0.679-1.792,1.169-3.781,1.471-5.969
							c-1.019-0.226-1.527-1.019-1.527-2.376c0-1.546,0.584-2.565,1.754-3.055c-0.076-1.245-0.264-2.103-0.566-2.574
							c-0.301-0.472-0.83-0.708-1.584-0.708c-1.244,0-2.451,0.905-3.621,2.716s-2.112,3.979-2.829,6.507
							c-0.716,2.527-1.075,4.753-1.075,6.676c0,1.811,0.208,3.027,0.623,3.65C251.688,40.331,252.442,40.642,253.536,40.642z
							 M302.252,45.847c-2.301,0-3.988-0.613-5.064-1.839c-1.074-1.226-1.611-2.744-1.611-4.555c0-0.792,0.094-1.688,0.282-2.688
							s0.387-1.971,0.595-2.914c0.207-0.943,0.348-1.546,0.424-1.811c0.302-1.32,0.584-2.622,0.849-3.904
							c0.265-1.283,0.396-2.32,0.396-3.112c0-1.924-0.678-2.886-2.036-2.886c-0.981,0-1.849,0.481-2.603,1.443
							c-0.755,0.962-1.358,2.216-1.811,3.763l-3.848,18.162h-8.148l4.131-19.521c0.113-0.452,0.17-0.924,0.17-1.414
							c0-1.66-0.566-2.49-1.697-2.49c-1.057,0-1.971,0.481-2.744,1.443s-1.387,2.235-1.839,3.819l-3.848,18.162h-8.147l5.998-28.29
							h8.146l-0.622,2.942c1.924-2.15,4.225-3.225,6.903-3.225c3.318,0,5.262,1.622,5.828,4.866c2.074-3.207,4.695-4.81,7.863-4.81
							c1.925,0,3.452,0.528,4.584,1.584s1.697,2.659,1.697,4.809c0,1.094-0.132,2.311-0.396,3.649
							c-0.264,1.339-0.641,2.971-1.131,4.895c-0.302,1.169-0.575,2.31-0.821,3.423c-0.245,1.113-0.367,1.99-0.367,2.631
							c0,0.754,0.17,1.339,0.509,1.754c0.34,0.415,0.925,0.623,1.754,0.623c1.132,0,2.037-0.405,2.716-1.216
							c0.68-0.811,1.358-2.065,2.037-3.763h2.377c-1.396,4.149-3.009,6.931-4.838,8.346S304.214,45.847,302.252,45.847z
							 M318.377,45.847c-2.753,0-4.903-0.726-6.45-2.178c-1.546-1.452-2.319-3.725-2.319-6.818c0-2.603,0.509-5.469,1.527-8.6
							s2.679-5.837,4.979-8.12c2.301-2.282,5.225-3.423,8.77-3.423c4.149,0,6.225,1.811,6.225,5.432
							c0,2.112-0.604,4.055-1.811,5.828s-2.811,3.197-4.81,4.272c-1.999,1.075-4.131,1.688-6.394,1.839
							c-0.075,0.83-0.113,1.396-0.113,1.697c0,3.131,1.169,4.696,3.508,4.696c1.057,0,2.188-0.283,3.395-0.849
							s2.301-1.283,3.282-2.15C327.147,43.056,323.885,45.847,318.377,45.847z M318.49,31.363c1.434-0.038,2.782-0.509,4.046-1.415
							s2.282-2.065,3.056-3.479c0.772-1.415,1.159-2.896,1.159-4.442s-0.471-2.32-1.414-2.32c-1.32,0-2.631,1.198-3.933,3.593
							C320.104,25.695,319.132,28.383,318.49,31.363z"/>
						<path id="profile-cards_1_" fill="#114E4E" d="M145.751,63.217h8.147l-0.905,4.244c1.886-1.622,4.093-2.434,6.62-2.434
							c2.112,0,3.791,0.698,5.036,2.094c1.245,1.396,1.867,3.678,1.867,6.847c0,2.979-0.434,5.987-1.301,9.024
							c-0.867,3.037-2.338,5.62-4.413,7.752c-2.075,2.131-4.81,3.196-8.204,3.196c-2.414,0-4.017-0.679-4.81-2.036l-2.942,13.805
							l-8.544,2.037L145.751,63.217z M150.843,89.018c1.811,0,3.31-0.848,4.498-2.546c1.188-1.697,2.056-3.725,2.603-6.082
							s0.82-4.555,0.82-6.592c0-3.131-0.943-4.696-2.829-4.696c-0.679,0-1.368,0.245-2.065,0.736
							c-0.698,0.49-1.311,1.169-1.839,2.036l-3.338,15.843C148.995,88.584,149.711,89.018,150.843,89.018z M171.778,65.311h8.147
							l-0.735,3.508c1.282-1.131,2.442-1.998,3.479-2.602c1.038-0.604,2.16-0.906,3.367-0.906s2.159,0.415,2.857,1.245
							c0.698,0.83,1.046,1.829,1.046,2.999c0,1.094-0.358,2.056-1.075,2.885c-0.717,0.83-1.716,1.245-2.999,1.245
							c-0.83,0-1.386-0.198-1.669-0.594c-0.283-0.396-0.5-0.972-0.651-1.726c-0.113-0.49-0.226-0.85-0.339-1.075
							c-0.113-0.227-0.321-0.34-0.623-0.34c-0.792,0-1.461,0.161-2.008,0.481s-1.254,0.877-2.122,1.669l-4.526,21.501h-8.147
							L171.778,65.311z M197.465,93.827c-2.792,0-4.998-0.716-6.62-2.149c-1.622-1.434-2.433-3.697-2.433-6.79
							c0-2.565,0.528-5.413,1.584-8.544s2.753-5.837,5.092-8.119c2.339-2.281,5.281-3.423,8.827-3.423
							c4.828,0,7.243,3.018,7.243,9.053v0.057c0.113,0.038,0.32,0.057,0.622,0.057c1.245,0,2.678-0.33,4.3-0.99
							s3.094-1.462,4.414-2.405l0.509,1.528c-1.095,1.169-2.519,2.159-4.272,2.97c-1.754,0.812-3.668,1.387-5.743,1.727
							c-0.302,3.433-1.075,6.432-2.32,8.996c-1.245,2.564-2.848,4.545-4.809,5.941C201.897,93.129,199.766,93.827,197.465,93.827z
							 M199.729,88.735c0.905,0,1.811-0.519,2.716-1.556c0.905-1.038,1.697-2.452,2.376-4.244c0.679-1.791,1.169-3.781,1.471-5.969
							c-1.019-0.227-1.528-1.019-1.528-2.377c0-1.547,0.584-2.564,1.754-3.055c-0.075-1.245-0.264-2.104-0.566-2.574
							c-0.302-0.473-0.83-0.708-1.584-0.708c-1.245,0-2.452,0.905-3.621,2.716s-2.112,3.979-2.829,6.507s-1.075,4.753-1.075,6.677
							c0,1.811,0.208,3.027,0.623,3.649S198.635,88.735,199.729,88.735z M209.347,107.746c-2.075,0-3.763-0.575-5.064-1.726
							s-1.952-2.688-1.952-4.611c0-1.585,0.453-2.886,1.358-3.904s2.018-1.829,3.338-2.433s3.018-1.245,5.092-1.924l6.281-29.762
							c1.018-4.677,2.715-7.874,5.092-9.59s5.092-2.574,8.147-2.574c2.829,0,5.225,0.471,7.187,1.414
							c1.961,0.943,2.941,2.641,2.941,5.092c0,1.585-0.424,2.744-1.273,3.48c-0.848,0.735-1.914,1.104-3.196,1.104
							c-0.981,0-1.792-0.236-2.433-0.707c-0.642-0.473-0.963-1.255-0.963-2.349c0-0.717,0.18-1.358,0.538-1.924
							c0.358-0.566,0.82-0.849,1.386-0.849c0.265,0,0.416,0.019,0.453,0.057c-0.037-0.754-0.33-1.32-0.877-1.697
							c-0.547-0.377-1.292-0.566-2.234-0.566c-1.66,0-2.99,0.604-3.989,1.811c-1,1.207-1.669,2.735-2.009,4.583l-0.962,4.639h4.526
							l-0.453,2.264h-4.525l-6.451,30.553c-0.754,3.547-2.055,6.035-3.903,7.469S211.535,107.746,209.347,107.746z M234.752,93.94
							c-1.811,0-3.272-0.565-4.385-1.697c-1.113-1.132-1.67-2.829-1.67-5.093c0-0.942,0.151-2.168,0.453-3.678l3.848-18.162h8.147
							l-4.074,19.238c-0.151,0.565-0.226,1.169-0.226,1.811c0,0.754,0.179,1.291,0.537,1.611c0.358,0.321,0.952,0.481,1.782,0.481
							c1.094,0,2.112-0.462,3.056-1.386c0.942-0.925,1.621-2.122,2.037-3.594h2.376c-1.396,4.074-3.188,6.838-5.376,8.289
							C239.07,93.215,236.902,93.94,234.752,93.94z M207.763,102.711c0.642,0,1.273-0.359,1.896-1.076
							c0.623-0.716,1.084-1.828,1.387-3.338l0.679-3.281c-1.924,0.604-3.452,1.367-4.583,2.291
							c-1.132,0.925-1.697,1.971-1.697,3.141c0,0.83,0.264,1.414,0.792,1.754C206.763,102.541,207.272,102.711,207.763,102.711z
							 M249.859,93.94c-1.812,0-3.273-0.565-4.386-1.697s-1.669-2.829-1.669-5.093c0-0.942,0.15-2.168,0.453-3.678l6.054-28.346
							l8.374-1.132l-6.508,30.554c-0.15,0.565-0.226,1.169-0.226,1.811c0,0.754,0.179,1.291,0.538,1.611
							c0.357,0.321,0.951,0.481,1.781,0.481c1.094,0,2.113-0.462,3.056-1.386c0.943-0.925,1.622-2.122,2.037-3.594h2.376
							c-1.396,4.074-3.188,6.838-5.375,8.289C254.178,93.215,252.009,93.94,249.859,93.94z M267.342,93.94
							c-2.754,0-4.903-0.726-6.45-2.179c-1.546-1.451-2.319-3.725-2.319-6.817c0-2.603,0.509-5.47,1.527-8.601
							s2.678-5.837,4.979-8.119c2.302-2.281,5.225-3.423,8.771-3.423c4.149,0,6.224,1.811,6.224,5.432
							c0,2.112-0.604,4.055-1.811,5.827c-1.207,1.773-2.811,3.197-4.809,4.272c-2,1.075-4.131,1.688-6.395,1.839
							c-0.075,0.83-0.113,1.396-0.113,1.697c0,3.131,1.17,4.696,3.509,4.696c1.056,0,2.188-0.283,3.395-0.849
							c1.207-0.566,2.301-1.283,3.282-2.15C276.111,91.149,272.85,93.94,267.342,93.94z M267.455,79.456
							c1.434-0.038,2.781-0.509,4.045-1.415c1.264-0.904,2.283-2.064,3.057-3.479c0.772-1.414,1.159-2.895,1.159-4.441
							c0-1.546-0.472-2.319-1.415-2.319c-1.32,0-2.631,1.197-3.932,3.592C269.068,73.789,268.096,76.477,267.455,79.456z
							 M282.166,76.57h11.316l-0.963,4.47h-11.372L282.166,76.57z M304.572,93.94c-2.792,0-4.961-0.726-6.508-2.179
							c-1.546-1.451-2.319-3.725-2.319-6.817c0-2.603,0.519-5.47,1.556-8.601s2.697-5.837,4.979-8.119
							c2.282-2.281,5.177-3.423,8.686-3.423c2.263,0,3.875,0.49,4.837,1.472c0.962,0.98,1.443,2.225,1.443,3.733
							c0,1.32-0.283,2.339-0.849,3.056c-0.566,0.717-1.283,1.074-2.15,1.074c-0.642,0-1.302-0.226-1.98-0.678
							c0.453-1.245,0.679-2.357,0.679-3.339c0-0.717-0.132-1.282-0.396-1.697c-0.265-0.415-0.66-0.622-1.188-0.622
							c-1.132,0-2.263,0.924-3.395,2.771c-1.132,1.849-2.056,4.094-2.772,6.733c-0.717,2.641-1.075,5.017-1.075,7.13
							c0,1.848,0.32,3.102,0.962,3.762s1.679,0.99,3.112,0.99c2.036,0,3.781-0.471,5.233-1.414s3.046-2.377,4.781-4.301h1.924
							C315.944,90.451,310.758,93.94,304.572,93.94z M324.997,93.94c-2.149,0-3.941-0.735-5.375-2.206
							c-1.434-1.472-2.15-3.772-2.15-6.903c0-2.791,0.557-5.724,1.67-8.798c1.112-3.074,2.772-5.678,4.979-7.809
							c2.207-2.131,4.838-3.197,7.894-3.197c1.546,0,2.696,0.265,3.451,0.793c0.754,0.527,1.132,1.226,1.132,2.094v0.396
							l0.622-2.999h8.147l-4.074,19.238c-0.15,0.565-0.226,1.169-0.226,1.811c0,1.621,0.773,2.432,2.319,2.432
							c1.057,0,1.971-0.49,2.744-1.471s1.387-2.263,1.839-3.848h2.377c-1.396,4.074-3.122,6.838-5.178,8.289
							c-2.056,1.453-4.121,2.179-6.195,2.179c-1.584,0-2.857-0.443-3.819-1.329c-0.962-0.887-1.537-2.179-1.726-3.876
							c-1.094,1.546-2.311,2.8-3.649,3.763C328.439,93.459,326.846,93.94,324.997,93.94z M328.675,88.452
							c0.943,0,1.877-0.443,2.801-1.329c0.924-0.887,1.556-2.104,1.896-3.65l2.716-12.787c0-0.49-0.188-0.971-0.565-1.442
							c-0.378-0.472-0.962-0.707-1.754-0.707c-1.509,0-2.867,0.877-4.074,2.631s-2.15,3.866-2.829,6.337s-1.019,4.648-1.019,6.535
							c0,1.886,0.273,3.093,0.82,3.621C327.214,88.188,327.883,88.452,328.675,88.452z M351.816,65.311h8.147l-0.735,3.508
							c1.282-1.131,2.442-1.998,3.479-2.602s2.159-0.906,3.366-0.906s2.16,0.415,2.857,1.245c0.698,0.83,1.047,1.829,1.047,2.999
							c0,1.094-0.358,2.056-1.075,2.885c-0.717,0.83-1.716,1.245-2.998,1.245c-0.83,0-1.387-0.198-1.67-0.594
							c-0.282-0.396-0.499-0.972-0.65-1.726c-0.113-0.49-0.227-0.85-0.34-1.075c-0.112-0.227-0.32-0.34-0.622-0.34
							c-0.792,0-1.462,0.161-2.009,0.481s-1.254,0.877-2.121,1.669l-4.526,21.501h-8.147L351.816,65.311z M376.033,93.94
							c-2.15,0-3.942-0.735-5.376-2.206c-1.433-1.472-2.149-3.772-2.149-6.903c0-2.791,0.556-5.724,1.669-8.798
							c1.112-3.074,2.772-5.678,4.979-7.809c2.207-2.131,4.838-3.197,7.894-3.197c1.547,0,2.697,0.265,3.451,0.793
							c0.755,0.527,1.132,1.226,1.132,2.094v0.226l2.772-13.013l8.374-1.132l-6.507,30.554c-0.151,0.565-0.227,1.169-0.227,1.811
							c0,0.754,0.18,1.291,0.537,1.611c0.358,0.321,0.953,0.481,1.783,0.481c1.056,0,1.971-0.452,2.744-1.358
							c0.772-0.904,1.386-2.111,1.839-3.621h2.376c-2.301,6.752-6.092,10.129-11.373,10.129c-1.546,0-2.801-0.416-3.763-1.245
							c-0.961-0.83-1.556-2.037-1.782-3.621c-0.98,1.509-2.159,2.753-3.536,3.733C379.493,93.45,377.881,93.94,376.033,93.94z
							 M379.711,88.452c0.905,0,1.819-0.415,2.744-1.245c0.924-0.83,1.556-1.98,1.895-3.451v-0.283l2.772-12.957
							c-0.339-1.319-1.112-1.979-2.319-1.979c-1.509,0-2.867,0.877-4.074,2.631s-2.149,3.866-2.829,6.337
							c-0.679,2.471-1.018,4.648-1.018,6.535c0,1.886,0.273,3.093,0.82,3.621C378.249,88.188,378.918,88.452,379.711,88.452z
							 M405.397,93.94c-1.811,0-3.338-0.349-4.583-1.047c-1.244-0.698-2.168-1.603-2.772-2.716
							c-0.604-1.112-0.904-2.272-0.904-3.479c0-1.245,0.292-2.329,0.877-3.253c0.584-0.925,1.291-1.594,2.121-2.009
							c1.472-2.641,2.754-5.31,3.848-8.007c1.094-2.696,2.131-5.61,3.112-8.741l8.373-1.132c0.189,4.828,0.51,10.053,0.962,15.673
							c0.189,2.263,0.283,3.904,0.283,4.923c0,2.301-0.585,4.187-1.754,5.658c-1.169,1.471-2.612,2.527-4.328,3.168
							C408.915,93.62,407.171,93.94,405.397,93.94z M403.587,89.471c1.396,0,2.565-0.415,3.509-1.244
							c0.942-0.83,1.414-2.17,1.414-4.018c0-1.132-0.113-2.717-0.34-4.753c-0.377-4.3-0.622-7.186-0.735-8.657
							c-0.905,2.98-2.433,6.545-4.583,10.693c0.868,0.453,1.302,1.113,1.302,1.98c0,0.717-0.236,1.358-0.707,1.924
							c-0.472,0.566-1.066,0.85-1.782,0.85c-0.793,0-1.302-0.246-1.528-0.736c0,1.358,0.273,2.357,0.82,2.999
							S402.38,89.471,403.587,89.471z"/>
					</g>
				</g>
			</g>
		</g>
	</g>
</g>
</svg>
