<svg xmlns="http://www.w3.org/2000/svg" xmlns:xlink="http://www.w3.org/1999/xlink" viewBox="0 0 415.42 106.09"><defs><style>.cls-1{fill:#a2deaf;}.cls-2{fill:#114e4e;}.cls-3{fill:#fff;}</style></defs><title>Recurso 1</title><g id="Capa_2" data-name="Capa 2"><g id="Capa_1-2" data-name="Capa 1"><g id="_00---App---Tablet_" data-name="00---App---Tablet+"><g id="Group-4"><g id="Tarjetas-molonas"><g id="Group-2"><g id="Group"><path id="Path" class="cls-1" d="M98.1,3.24a10,10,0,0,1,7.73,1.7,10,10,0,0,1,4.24,6.68l10.76,61a10.28,10.28,0,0,1-8.38,12L24.31,100.14a10.28,10.28,0,0,1-12-8.38l-10.76-61A10,10,0,0,1,3.29,23,10,10,0,0,1,10,18.78Z"/><path id="Path-Copy" class="cls-2" d="M96.69,1.83a10,10,0,0,1,7.73,1.7,10,10,0,0,1,4.24,6.68l10.76,61a10.28,10.28,0,0,1-8.38,12L22.9,98.72A10,10,0,0,1,15.17,97a10,10,0,0,1-4.24-6.68L.17,29.33a10,10,0,0,1,1.7-7.73,10,10,0,0,1,6.68-4.24Z"/><path id="Path-2" data-name="Path" class="cls-3" d="M112.63,72.42l-10.76-61a3.31,3.31,0,0,0-4-2.79L9.75,24.15a3.31,3.31,0,0,0-2.79,4l10.76,61a3.31,3.31,0,0,0,4,2.79L109.84,76.4a3.31,3.31,0,0,0,2.79-4Z"/><image width="1797" height="2539" transform="translate(22.06 90.08) rotate(-102.58) scale(0.03)" xlink:href="../../../../../../../Downloads/Gorka.jpg"/></g><path id="Awesome" class="cls-1" d="M135.51,50.3a17.7,17.7,0,0,1-3.68-.34,5,5,0,0,1-2.74-1.64,5.91,5.91,0,0,1-1.16-4,32.26,32.26,0,0,1,2.29-10.18,78.61,78.61,0,0,1,6-12.84,14.23,14.23,0,0,0-4.47.85,3.58,3.58,0,0,0-2.15,2.09q.23,0,.48.57a2.86,2.86,0,0,1,.25,1.19,1.84,1.84,0,0,1-.91,1.61,4,4,0,0,1-2.26.59,3.71,3.71,0,0,1-2.55-.85,3.07,3.07,0,0,1-1-2.43,5,5,0,0,1,1.5-3.51,10.31,10.31,0,0,1,4.16-2.52,17.67,17.67,0,0,1,5.88-.93q1.19,0,2.94.17a57,57,0,0,1,9.82-12q5.18-4.67,9.87-4.67a10.9,10.9,0,0,1,4.47.79l-8.88,41.64H145.3l4.36-20.54a23.25,23.25,0,0,0-3.85-1.41,22.69,22.69,0,0,0-3.73-.62,96.53,96.53,0,0,0-5.29,14.23,45.1,45.1,0,0,0-2.07,11.63A5.15,5.15,0,0,0,135.51,50.3ZM153.45,5.43a16.53,16.53,0,0,0-5.06,4.84,55.89,55.89,0,0,0-5.12,8.57,35.5,35.5,0,0,1,6.9,2Zm13.13,38.76a5.88,5.88,0,0,1-4.38-1.7,7,7,0,0,1-1.67-5.09,19.62,19.62,0,0,1,.45-3.68l3.85-18.16H173L168.9,34.8a5.81,5.81,0,0,0-.17,1.41q0,2.49,1.7,2.49a3.45,3.45,0,0,0,2.72-1.33,9.85,9.85,0,0,0,1.81-3.65l3.85-18.16h8.15L182.87,34.8a11.88,11.88,0,0,0-.28,2,1.68,1.68,0,0,0,1.92,1.87q2.6,0,4.84-3.28a28.16,28.16,0,0,0,3.59-7.81,27.83,27.83,0,0,0,1.36-7.81q-.11.28-.74.42a5,5,0,0,1-1.08.14,1.67,1.67,0,0,1-1.5-.91,3.81,3.81,0,0,1-.54-2,2.93,2.93,0,0,1,.88-2.21,3.65,3.65,0,0,1,2.63-.85,3,3,0,0,1,2.72,1.39,6.68,6.68,0,0,1,.85,3.54,37.71,37.71,0,0,1-1.75,10.89,25.92,25.92,0,0,1-5.38,9.87,11.55,11.55,0,0,1-9,4.07A7.91,7.91,0,0,1,176.87,43a5.48,5.48,0,0,1-2.26-3.56Q171.44,44.19,166.58,44.19Zm39.89,0A9.14,9.14,0,0,1,200,42q-2.32-2.18-2.32-6.82a28,28,0,0,1,1.53-8.6,20,20,0,0,1,5-8.12,11.93,11.93,0,0,1,8.77-3.42q6.22,0,6.22,5.43a10.14,10.14,0,0,1-1.81,5.83,13.36,13.36,0,0,1-4.81,4.27,15.53,15.53,0,0,1-6.39,1.84q-.11,1.7-.11,2.26,0,2.77,1,3.76a4.19,4.19,0,0,0,3.11,1A9.4,9.4,0,0,0,215.32,38a25.37,25.37,0,0,0,4.78-4.3H222Q215.74,44.19,206.46,44.19Zm.11-14.48a7.46,7.46,0,0,0,4-1.47,10.36,10.36,0,0,0,3.06-3.45,9,9,0,0,0,1.16-4.41q0-2.32-1.41-2.32-2,0-4,3.56A27.15,27.15,0,0,0,206.58,29.7Zm20,14.48a9.25,9.25,0,0,1-4.58-1,6.87,6.87,0,0,1-2.77-2.72,7.2,7.2,0,0,1-.91-3.48,6,6,0,0,1,.88-3.25,5.38,5.38,0,0,1,2.12-2,72.22,72.22,0,0,0,3.85-8q1.64-4,3.11-8.74l8.37-1.13q.28,7.24,1,15.67.28,3.39.28,4.92a8.53,8.53,0,0,1-.23,2.15,23.22,23.22,0,0,0,4.07-2.83h2.38a33.07,33.07,0,0,1-8.66,7.07,9.75,9.75,0,0,1-4,2.57A14.9,14.9,0,0,1,226.55,44.19Zm-1.81-4.47a4.63,4.63,0,0,0,4.92-5.26,46,46,0,0,0-.34-4.75q-.57-6.45-.74-8.66A65.47,65.47,0,0,1,224,31.74a2.14,2.14,0,0,1,1.3,2,2.92,2.92,0,0,1-.71,1.92,2.22,2.22,0,0,1-1.78.85,1.5,1.5,0,0,1-1.53-.74,4.56,4.56,0,0,0,.82,3A3.28,3.28,0,0,0,224.74,39.72ZM250,44.08a9.64,9.64,0,0,1-6.62-2.15q-2.43-2.15-2.43-6.79a27,27,0,0,1,1.58-8.54,20.2,20.2,0,0,1,5.09-8.12,12.13,12.13,0,0,1,8.83-3.42q7.24,0,7.24,9.05v.06a2.28,2.28,0,0,0,.62.06,11.64,11.64,0,0,0,4.3-1,21.5,21.5,0,0,0,4.41-2.4l.51,1.53a13.54,13.54,0,0,1-4.27,3A22.13,22.13,0,0,1,263.5,27a25.62,25.62,0,0,1-2.32,9A15.28,15.28,0,0,1,256.37,42,10.8,10.8,0,0,1,250,44.08ZM252.24,39A3.75,3.75,0,0,0,255,37.43a13.94,13.94,0,0,0,2.38-4.24,27.38,27.38,0,0,0,1.47-6q-1.53-.34-1.53-2.38A3,3,0,0,1,259,21.78a5.82,5.82,0,0,0-.57-2.57,1.73,1.73,0,0,0-1.58-.71q-1.87,0-3.62,2.72a24,24,0,0,0-2.83,6.51,24.89,24.89,0,0,0-1.08,6.68,7.26,7.26,0,0,0,.62,3.65A2.52,2.52,0,0,0,252.24,39ZM301,44.19q-3.45,0-5.06-1.84a6.66,6.66,0,0,1-1.61-4.55,14.65,14.65,0,0,1,.28-2.69q.28-1.5.59-2.91t.42-1.81q.45-2,.85-3.9a16.19,16.19,0,0,0,.4-3.11q0-2.89-2-2.89a3.27,3.27,0,0,0-2.6,1.44,11.11,11.11,0,0,0-1.81,3.76l-3.85,18.16h-8.15l4.13-19.52a5.81,5.81,0,0,0,.17-1.41q0-2.49-1.7-2.49a3.44,3.44,0,0,0-2.74,1.44,10.76,10.76,0,0,0-1.84,3.82l-3.85,18.16H264.4l6-28.29h8.15l-.62,2.94a9,9,0,0,1,6.9-3.23q5,0,5.83,4.87,3.11-4.81,7.86-4.81a6.45,6.45,0,0,1,4.58,1.58,6.28,6.28,0,0,1,1.7,4.81,19,19,0,0,1-.4,3.65q-.4,2-1.13,4.89-.45,1.75-.82,3.42a13,13,0,0,0-.37,2.63,2.7,2.7,0,0,0,.51,1.75,2.15,2.15,0,0,0,1.75.62,3.36,3.36,0,0,0,2.72-1.22,14.27,14.27,0,0,0,2-3.76h2.38q-2.09,6.22-4.84,8.35A9.19,9.19,0,0,1,301,44.19Zm16.13,0A9.05,9.05,0,0,1,310.63,42q-2.32-2.18-2.32-6.82a28,28,0,0,1,1.53-8.6,20,20,0,0,1,5-8.12,11.93,11.93,0,0,1,8.77-3.42q6.22,0,6.22,5.43A10.14,10.14,0,0,1,328,26.31a13.36,13.36,0,0,1-4.81,4.27,15.53,15.53,0,0,1-6.39,1.84q-.11,1.24-.11,1.7,0,4.7,3.51,4.7a8,8,0,0,0,3.39-.85,13.7,13.7,0,0,0,3.28-2.15Q325.34,44.19,317.08,44.19Zm.11-14.48a7.16,7.16,0,0,0,4-1.41,10.28,10.28,0,0,0,3.06-3.48,9.13,9.13,0,0,0,1.16-4.44Q325.45,18,324,18q-2,0-3.93,3.59A30,30,0,0,0,317.19,29.7Z"/><path id="profile-cards" class="cls-1" d="M144.45,61.56h8.15l-.91,4.24a9.84,9.84,0,0,1,6.62-2.43,6.41,6.41,0,0,1,5,2.09q1.87,2.09,1.87,6.85a32.73,32.73,0,0,1-1.3,9,18,18,0,0,1-4.41,7.75,10.93,10.93,0,0,1-8.2,3.2q-3.62,0-4.81-2l-2.94,13.81-8.54,2Zm5.09,25.8a5.32,5.32,0,0,0,4.5-2.55,17.31,17.31,0,0,0,2.6-6.08,29.27,29.27,0,0,0,.82-6.59q0-4.7-2.83-4.7a3.59,3.59,0,0,0-2.07.74,6.68,6.68,0,0,0-1.84,2l-3.34,15.84A2,2,0,0,0,149.54,87.36Zm20.93-23.71h8.15l-.74,3.51a22.68,22.68,0,0,1,3.48-2.6,6.58,6.58,0,0,1,3.37-.91,3.54,3.54,0,0,1,2.86,1.24,4.51,4.51,0,0,1,1,3,4.28,4.28,0,0,1-1.08,2.89,3.75,3.75,0,0,1-3,1.24,1.94,1.94,0,0,1-1.67-.59,4.52,4.52,0,0,1-.65-1.73,5.19,5.19,0,0,0-.34-1.08.63.63,0,0,0-.62-.34,3.91,3.91,0,0,0-2,.48,13.81,13.81,0,0,0-2.12,1.67l-4.53,21.5h-8.15Zm25.69,28.52A9.64,9.64,0,0,1,189.55,90q-2.43-2.15-2.43-6.79a27,27,0,0,1,1.58-8.54,20.2,20.2,0,0,1,5.09-8.12,12.13,12.13,0,0,1,8.83-3.42q7.24,0,7.24,9.05v.06a2.28,2.28,0,0,0,.62.06,11.64,11.64,0,0,0,4.3-1,21.5,21.5,0,0,0,4.41-2.4l.51,1.53a13.54,13.54,0,0,1-4.27,3,22.13,22.13,0,0,1-5.74,1.73,25.62,25.62,0,0,1-2.32,9,15.28,15.28,0,0,1-4.81,5.94A10.8,10.8,0,0,1,196.17,92.17Zm2.26-5.09a3.75,3.75,0,0,0,2.72-1.56,13.94,13.94,0,0,0,2.38-4.24,27.38,27.38,0,0,0,1.47-6q-1.53-.34-1.53-2.38a3,3,0,0,1,1.75-3.06,5.82,5.82,0,0,0-.57-2.57,1.73,1.73,0,0,0-1.58-.71q-1.87,0-3.62,2.72a24,24,0,0,0-2.83,6.51,24.89,24.89,0,0,0-1.08,6.68,7.26,7.26,0,0,0,.62,3.65A2.52,2.52,0,0,0,198.43,87.08Zm9.62,19a7.36,7.36,0,0,1-5.06-1.73,5.85,5.85,0,0,1-2-4.61,5.66,5.66,0,0,1,1.36-3.9,9.92,9.92,0,0,1,3.34-2.43,49.91,49.91,0,0,1,5.09-1.92l6.28-29.76q1.53-7,5.09-9.59a13.56,13.56,0,0,1,8.15-2.57A16.49,16.49,0,0,1,237.53,51a5.15,5.15,0,0,1,2.94,5.09,4.37,4.37,0,0,1-1.27,3.48,4.71,4.71,0,0,1-3.2,1.1,4,4,0,0,1-2.43-.71,2.72,2.72,0,0,1-1-2.35,3.52,3.52,0,0,1,.54-1.92,1.6,1.6,0,0,1,1.39-.85.94.94,0,0,1,.45.06,2.06,2.06,0,0,0-.88-1.7,3.88,3.88,0,0,0-2.23-.57,4.92,4.92,0,0,0-4,1.81,9.82,9.82,0,0,0-2,4.58l-1,4.64h4.53L229,65.92h-4.53L218,96.47q-1.13,5.32-3.9,7.47A9.67,9.67,0,0,1,208,106.09Zm25.4-13.81a5.88,5.88,0,0,1-4.38-1.7,7,7,0,0,1-1.67-5.09,19.62,19.62,0,0,1,.45-3.68l3.85-18.16h8.15l-4.07,19.24a7,7,0,0,0-.23,1.81,2.08,2.08,0,0,0,.54,1.61,2.65,2.65,0,0,0,1.78.48,4.31,4.31,0,0,0,3.06-1.39,7.92,7.92,0,0,0,2-3.59h2.38q-2.09,6.11-5.38,8.29A11.72,11.72,0,0,1,233.45,92.28Zm-27,8.77a2.59,2.59,0,0,0,1.9-1.08,7.26,7.26,0,0,0,1.39-3.34l.68-3.28a13.68,13.68,0,0,0-4.58,2.29,4,4,0,0,0-1.7,3.14,1.92,1.92,0,0,0,.79,1.75A2.83,2.83,0,0,0,206.46,101.05Zm42.1-8.77a5.88,5.88,0,0,1-4.38-1.7,7,7,0,0,1-1.67-5.09,19.62,19.62,0,0,1,.45-3.68L249,53.47l8.37-1.13-6.51,30.55a7,7,0,0,0-.23,1.81,2.08,2.08,0,0,0,.54,1.61,2.65,2.65,0,0,0,1.78.48A4.31,4.31,0,0,0,256,85.41a7.92,7.92,0,0,0,2-3.59h2.38q-2.09,6.11-5.38,8.29A11.72,11.72,0,0,1,248.56,92.28Zm17.48,0a9.05,9.05,0,0,1-6.45-2.18q-2.32-2.18-2.32-6.82a28,28,0,0,1,1.53-8.6,20,20,0,0,1,5-8.12,11.93,11.93,0,0,1,8.77-3.42q6.22,0,6.22,5.43A10.14,10.14,0,0,1,277,74.4a13.36,13.36,0,0,1-4.81,4.27,15.53,15.53,0,0,1-6.39,1.84q-.11,1.24-.11,1.7,0,4.7,3.51,4.7a8,8,0,0,0,3.39-.85,13.7,13.7,0,0,0,3.28-2.15Q274.3,92.28,266,92.28Zm.11-14.48a7.16,7.16,0,0,0,4-1.41,10.28,10.28,0,0,0,3.06-3.48,9.13,9.13,0,0,0,1.16-4.44q0-2.32-1.41-2.32-2,0-3.93,3.59A30,30,0,0,0,266.16,77.8Zm14.71-2.89h11.32l-1,4.47H279.85Zm22.41,17.37a9.14,9.14,0,0,1-6.51-2.18q-2.32-2.18-2.32-6.82a27.55,27.55,0,0,1,1.56-8.6,20.38,20.38,0,0,1,5-8.12,11.77,11.77,0,0,1,8.69-3.42q3.39,0,4.84,1.47a5.11,5.11,0,0,1,1.44,3.73,4.83,4.83,0,0,1-.85,3.06,2.63,2.63,0,0,1-2.15,1.08,3.58,3.58,0,0,1-2-.68,9.91,9.91,0,0,0,.68-3.34,3.14,3.14,0,0,0-.4-1.7,1.32,1.32,0,0,0-1.19-.62q-1.7,0-3.39,2.77a25.83,25.83,0,0,0-2.77,6.73,27.51,27.51,0,0,0-1.08,7.13q0,2.77,1,3.76a4.19,4.19,0,0,0,3.11,1,9.4,9.4,0,0,0,5.23-1.41,25.37,25.37,0,0,0,4.78-4.3h1.92Q312.55,92.28,303.27,92.28Zm20.43,0a7.2,7.2,0,0,1-5.38-2.21q-2.15-2.21-2.15-6.9a25.84,25.84,0,0,1,1.67-8.8,20.26,20.26,0,0,1,5-7.81,11,11,0,0,1,7.89-3.2,6.06,6.06,0,0,1,3.45.79,2.44,2.44,0,0,1,1.13,2.09v.4l.62-3h8.15L340,82.89a7,7,0,0,0-.23,1.81q0,2.43,2.32,2.43a3.42,3.42,0,0,0,2.74-1.47,11.08,11.08,0,0,0,1.84-3.85H349q-2.09,6.11-5.18,8.29a10.68,10.68,0,0,1-6.2,2.18A5.41,5.41,0,0,1,333.86,91a6,6,0,0,1-1.73-3.88,15.8,15.8,0,0,1-3.65,3.76A8,8,0,0,1,323.7,92.28Zm3.68-5.49a4.08,4.08,0,0,0,2.8-1.33,7,7,0,0,0,1.9-3.65L334.79,69a2.3,2.3,0,0,0-.57-1.44,2.11,2.11,0,0,0-1.75-.71q-2.26,0-4.07,2.63a20.83,20.83,0,0,0-2.83,6.34,25.06,25.06,0,0,0-1,6.54q0,2.83.82,3.62A2.78,2.78,0,0,0,327.38,86.79Zm23.14-23.14h8.15l-.74,3.51a22.67,22.67,0,0,1,3.48-2.6,6.58,6.58,0,0,1,3.37-.91,3.54,3.54,0,0,1,2.86,1.24,4.51,4.51,0,0,1,1,3,4.28,4.28,0,0,1-1.08,2.89,3.75,3.75,0,0,1-3,1.24,1.94,1.94,0,0,1-1.67-.59,4.52,4.52,0,0,1-.65-1.73,5.19,5.19,0,0,0-.34-1.08.63.63,0,0,0-.62-.34,3.91,3.91,0,0,0-2,.48,13.81,13.81,0,0,0-2.12,1.67l-4.53,21.5h-8.15Zm24.22,28.63a7.2,7.2,0,0,1-5.38-2.21q-2.15-2.21-2.15-6.9a25.84,25.84,0,0,1,1.67-8.8,20.26,20.26,0,0,1,5-7.81,11,11,0,0,1,7.89-3.2,6.06,6.06,0,0,1,3.45.79,2.44,2.44,0,0,1,1.13,2.09v.23l2.77-13,8.37-1.13L391,82.89a7,7,0,0,0-.23,1.81,2.08,2.08,0,0,0,.54,1.61,2.65,2.65,0,0,0,1.78.48,3.51,3.51,0,0,0,2.74-1.36,9.89,9.89,0,0,0,1.84-3.62H400q-3.45,10.13-11.37,10.13a5.56,5.56,0,0,1-3.76-1.24,5.63,5.63,0,0,1-1.78-3.62,13.67,13.67,0,0,1-3.54,3.73A8.12,8.12,0,0,1,374.73,92.28Zm3.68-5.49a4.16,4.16,0,0,0,2.74-1.24,6.43,6.43,0,0,0,1.9-3.45v-.28l2.77-13a2.27,2.27,0,0,0-2.32-2q-2.26,0-4.07,2.63a20.83,20.83,0,0,0-2.83,6.34,25.06,25.06,0,0,0-1,6.54q0,2.83.82,3.62A2.78,2.78,0,0,0,378.41,86.79Zm25.69,5.49a9.25,9.25,0,0,1-4.58-1,6.87,6.87,0,0,1-2.77-2.72,7.2,7.2,0,0,1-.91-3.48,6,6,0,0,1,.88-3.25,5.38,5.38,0,0,1,2.12-2,72.21,72.21,0,0,0,3.85-8q1.64-4,3.11-8.74l8.37-1.13q.28,7.24,1,15.67.28,3.39.28,4.92a8.81,8.81,0,0,1-1.75,5.66,9.85,9.85,0,0,1-4.33,3.17A14.85,14.85,0,0,1,404.1,92.28Zm-1.81-4.47a4.63,4.63,0,0,0,4.92-5.26,46,46,0,0,0-.34-4.75q-.57-6.45-.74-8.66a65.47,65.47,0,0,1-4.58,10.69,2.14,2.14,0,0,1,1.3,2,2.92,2.92,0,0,1-.71,1.92,2.22,2.22,0,0,1-1.78.85,1.5,1.5,0,0,1-1.53-.74,4.56,4.56,0,0,0,.82,3A3.28,3.28,0,0,0,402.29,87.81Z"/><path id="Awesome-2" data-name="Awesome" class="cls-2" d="M134.1,48.89a17.7,17.7,0,0,1-3.68-.34,5,5,0,0,1-2.74-1.64,5.91,5.91,0,0,1-1.16-4,32.26,32.26,0,0,1,2.29-10.18,78.61,78.61,0,0,1,6-12.84,14.23,14.23,0,0,0-4.47.85,3.58,3.58,0,0,0-2.15,2.09q.23,0,.48.57a2.86,2.86,0,0,1,.25,1.19,1.84,1.84,0,0,1-.91,1.61,4,4,0,0,1-2.26.59,3.71,3.71,0,0,1-2.55-.85,3.07,3.07,0,0,1-1-2.43,5,5,0,0,1,1.5-3.51,10.31,10.31,0,0,1,4.16-2.52,17.67,17.67,0,0,1,5.88-.93q1.19,0,2.94.17a57,57,0,0,1,9.82-12Q151.75,0,156.45,0a10.9,10.9,0,0,1,4.47.79L152,42.44h-8.15l4.36-20.54a23.25,23.25,0,0,0-3.85-1.41,22.69,22.69,0,0,0-3.73-.62,96.53,96.53,0,0,0-5.29,14.23,45.1,45.1,0,0,0-2.07,11.63A5.15,5.15,0,0,0,134.1,48.89ZM152,4A16.53,16.53,0,0,0,147,8.85a55.89,55.89,0,0,0-5.12,8.57,35.5,35.5,0,0,1,6.9,2Zm13.13,38.76a5.88,5.88,0,0,1-4.38-1.7A7,7,0,0,1,159.11,36a19.62,19.62,0,0,1,.45-3.68l3.85-18.16h8.15l-4.07,19.24a5.81,5.81,0,0,0-.17,1.41q0,2.49,1.7,2.49A3.45,3.45,0,0,0,171.72,36a9.85,9.85,0,0,0,1.81-3.65l3.85-18.16h8.15l-4.07,19.24a11.88,11.88,0,0,0-.28,2,1.68,1.68,0,0,0,1.92,1.87q2.6,0,4.84-3.28a28.16,28.16,0,0,0,3.59-7.81,27.83,27.83,0,0,0,1.36-7.81q-.11.28-.74.42a5,5,0,0,1-1.08.14,1.67,1.67,0,0,1-1.5-.91,3.81,3.81,0,0,1-.54-2,2.93,2.93,0,0,1,.88-2.21,3.65,3.65,0,0,1,2.63-.85,3,3,0,0,1,2.72,1.39,6.68,6.68,0,0,1,.85,3.54,37.71,37.71,0,0,1-1.75,10.89A25.92,25.92,0,0,1,189,38.7a11.55,11.55,0,0,1-9,4.07,7.91,7.91,0,0,1-4.53-1.19A5.48,5.48,0,0,1,173.2,38Q170,42.77,165.16,42.77Zm39.89,0a9.14,9.14,0,0,1-6.51-2.18q-2.32-2.18-2.32-6.82a28,28,0,0,1,1.53-8.6,20,20,0,0,1,5-8.12,11.93,11.93,0,0,1,8.77-3.42q6.22,0,6.22,5.43a10.14,10.14,0,0,1-1.81,5.83,13.36,13.36,0,0,1-4.81,4.27A15.53,15.53,0,0,1,204.71,31q-.11,1.7-.11,2.26,0,2.77,1,3.76a4.19,4.19,0,0,0,3.11,1,9.4,9.4,0,0,0,5.23-1.41,25.37,25.37,0,0,0,4.78-4.3h1.92Q214.33,42.77,205.05,42.77Zm.11-14.48a7.46,7.46,0,0,0,4-1.47,10.36,10.36,0,0,0,3.06-3.45A9,9,0,0,0,213.37,19q0-2.32-1.41-2.32-2,0-4,3.56A27.15,27.15,0,0,0,205.16,28.29Zm20,14.48a9.25,9.25,0,0,1-4.58-1A6.87,6.87,0,0,1,217.78,39a7.2,7.2,0,0,1-.91-3.48,6,6,0,0,1,.88-3.25,5.38,5.38,0,0,1,2.12-2,72.22,72.22,0,0,0,3.85-8q1.64-4,3.11-8.74l8.37-1.13q.28,7.24,1,15.67.28,3.39.28,4.92a8.53,8.53,0,0,1-.23,2.15,23.22,23.22,0,0,0,4.07-2.83h2.38A33.07,33.07,0,0,1,234,39.38,9.75,9.75,0,0,1,230,42,14.9,14.9,0,0,1,225.14,42.77Zm-1.81-4.47A4.63,4.63,0,0,0,228.25,33a46,46,0,0,0-.34-4.75q-.57-6.45-.74-8.66a65.47,65.47,0,0,1-4.58,10.69,2.14,2.14,0,0,1,1.3,2,2.92,2.92,0,0,1-.71,1.92,2.22,2.22,0,0,1-1.78.85,1.5,1.5,0,0,1-1.53-.74,4.56,4.56,0,0,0,.82,3A3.28,3.28,0,0,0,223.33,38.3Zm25.23,4.36a9.64,9.64,0,0,1-6.62-2.15q-2.43-2.15-2.43-6.79a27,27,0,0,1,1.58-8.54,20.2,20.2,0,0,1,5.09-8.12A12.13,12.13,0,0,1,255,13.64q7.24,0,7.24,9.05v.06a2.28,2.28,0,0,0,.62.06,11.64,11.64,0,0,0,4.3-1,21.5,21.5,0,0,0,4.41-2.4l.51,1.53a13.54,13.54,0,0,1-4.27,3,22.13,22.13,0,0,1-5.74,1.73,25.62,25.62,0,0,1-2.32,9A15.28,15.28,0,0,1,255,40.57,10.8,10.8,0,0,1,248.56,42.66Zm2.26-5.09A3.75,3.75,0,0,0,253.54,36a13.94,13.94,0,0,0,2.38-4.24,27.38,27.38,0,0,0,1.47-6q-1.53-.34-1.53-2.38a3,3,0,0,1,1.75-3.06,5.82,5.82,0,0,0-.57-2.57,1.73,1.73,0,0,0-1.58-.71q-1.87,0-3.62,2.72A24,24,0,0,0,249,26.31,24.88,24.88,0,0,0,247.94,33a7.26,7.26,0,0,0,.62,3.65A2.52,2.52,0,0,0,250.82,37.57Zm48.72,5.21q-3.45,0-5.06-1.84a6.66,6.66,0,0,1-1.61-4.55,14.65,14.65,0,0,1,.28-2.69q.28-1.5.59-2.91t.42-1.81q.45-2,.85-3.9a16.19,16.19,0,0,0,.4-3.11q0-2.89-2-2.89a3.27,3.27,0,0,0-2.6,1.44A11.1,11.1,0,0,0,289,24.27l-3.85,18.16H277l4.13-19.52a5.81,5.81,0,0,0,.17-1.41q0-2.49-1.7-2.49a3.44,3.44,0,0,0-2.74,1.44A10.76,10.76,0,0,0,275,24.27l-3.85,18.16H263l6-28.29h8.15l-.62,2.94a9,9,0,0,1,6.9-3.23q5,0,5.83,4.87,3.11-4.81,7.86-4.81a6.45,6.45,0,0,1,4.58,1.58,6.28,6.28,0,0,1,1.7,4.81A19,19,0,0,1,303,24q-.4,2-1.13,4.89-.45,1.75-.82,3.42a13,13,0,0,0-.37,2.63,2.7,2.7,0,0,0,.51,1.75,2.15,2.15,0,0,0,1.75.62,3.36,3.36,0,0,0,2.72-1.22,14.27,14.27,0,0,0,2-3.76h2.38q-2.09,6.22-4.84,8.35A9.19,9.19,0,0,1,299.54,42.77Zm16.13,0a9.05,9.05,0,0,1-6.45-2.18q-2.32-2.18-2.32-6.82a28,28,0,0,1,1.53-8.6,20,20,0,0,1,5-8.12,11.93,11.93,0,0,1,8.77-3.42q6.22,0,6.22,5.43a10.14,10.14,0,0,1-1.81,5.83,13.36,13.36,0,0,1-4.81,4.27A15.53,15.53,0,0,1,315.38,31q-.11,1.24-.11,1.7,0,4.7,3.51,4.7a8,8,0,0,0,3.39-.85,13.7,13.7,0,0,0,3.28-2.15Q323.93,42.77,315.66,42.77Zm.11-14.48a7.16,7.16,0,0,0,4-1.41,10.28,10.28,0,0,0,3.06-3.48A9.13,9.13,0,0,0,324,19q0-2.32-1.41-2.32-2,0-3.93,3.59A30,30,0,0,0,315.78,28.29Z"/><path id="profile-cards-2" data-name="profile-cards" class="cls-2" d="M143,60.14h8.15l-.91,4.24A9.84,9.84,0,0,1,156.9,62a6.41,6.41,0,0,1,5,2.09q1.87,2.09,1.87,6.85a32.73,32.73,0,0,1-1.3,9,18,18,0,0,1-4.41,7.75,10.93,10.93,0,0,1-8.2,3.2q-3.62,0-4.81-2l-2.94,13.81-8.54,2Zm5.09,25.8a5.32,5.32,0,0,0,4.5-2.55,17.31,17.31,0,0,0,2.6-6.08,29.27,29.27,0,0,0,.82-6.59q0-4.7-2.83-4.7a3.59,3.59,0,0,0-2.07.74,6.69,6.69,0,0,0-1.84,2L146,84.64A2,2,0,0,0,148.13,85.95Zm20.93-23.71h8.15l-.74,3.51a22.68,22.68,0,0,1,3.48-2.6,6.58,6.58,0,0,1,3.37-.91,3.54,3.54,0,0,1,2.86,1.24,4.51,4.51,0,0,1,1,3,4.28,4.28,0,0,1-1.08,2.89,3.75,3.75,0,0,1-3,1.24,1.94,1.94,0,0,1-1.67-.59,4.52,4.52,0,0,1-.65-1.73,5.19,5.19,0,0,0-.34-1.08.63.63,0,0,0-.62-.34,3.91,3.91,0,0,0-2,.48A13.81,13.81,0,0,0,175.74,69l-4.53,21.5h-8.15Zm25.69,28.52a9.64,9.64,0,0,1-6.62-2.15q-2.43-2.15-2.43-6.79a27,27,0,0,1,1.58-8.54,20.2,20.2,0,0,1,5.09-8.12,12.13,12.13,0,0,1,8.83-3.42q7.24,0,7.24,9.05v.06a2.28,2.28,0,0,0,.62.06,11.64,11.64,0,0,0,4.3-1,21.5,21.5,0,0,0,4.41-2.4l.51,1.53A13.54,13.54,0,0,1,214,72a22.13,22.13,0,0,1-5.74,1.73,25.62,25.62,0,0,1-2.32,9,15.28,15.28,0,0,1-4.81,5.94A10.8,10.8,0,0,1,194.75,90.75ZM197,85.66a3.75,3.75,0,0,0,2.72-1.56,13.94,13.94,0,0,0,2.38-4.24,27.38,27.38,0,0,0,1.47-6q-1.53-.34-1.53-2.38a3,3,0,0,1,1.75-3.06,5.82,5.82,0,0,0-.57-2.57,1.73,1.73,0,0,0-1.58-.71q-1.87,0-3.62,2.72a24,24,0,0,0-2.83,6.51,24.88,24.88,0,0,0-1.08,6.68,7.26,7.26,0,0,0,.62,3.65A2.52,2.52,0,0,0,197,85.66Zm9.62,19a7.36,7.36,0,0,1-5.06-1.73,5.85,5.85,0,0,1-2-4.61,5.66,5.66,0,0,1,1.36-3.9A9.92,9.92,0,0,1,204.31,92a49.91,49.91,0,0,1,5.09-1.92l6.28-29.76q1.53-7,5.09-9.59a13.56,13.56,0,0,1,8.15-2.57,16.49,16.49,0,0,1,7.19,1.41,5.15,5.15,0,0,1,2.94,5.09,4.37,4.37,0,0,1-1.27,3.48,4.71,4.71,0,0,1-3.2,1.1,4,4,0,0,1-2.43-.71,2.72,2.72,0,0,1-1-2.35,3.52,3.52,0,0,1,.54-1.92,1.6,1.6,0,0,1,1.39-.85.94.94,0,0,1,.45.06,2.06,2.06,0,0,0-.88-1.7,3.88,3.88,0,0,0-2.23-.57,4.92,4.92,0,0,0-4,1.81,9.82,9.82,0,0,0-2,4.58l-1,4.64H228l-.45,2.26H223l-6.45,30.55q-1.13,5.32-3.9,7.47A9.67,9.67,0,0,1,206.63,104.67ZM232,90.87a5.88,5.88,0,0,1-4.38-1.7A7,7,0,0,1,226,84.08a19.62,19.62,0,0,1,.45-3.68l3.85-18.16h8.15l-4.07,19.24a7,7,0,0,0-.23,1.81,2.08,2.08,0,0,0,.54,1.61,2.65,2.65,0,0,0,1.78.48A4.31,4.31,0,0,0,239.51,84a7.92,7.92,0,0,0,2-3.59h2.38q-2.09,6.11-5.38,8.29A11.72,11.72,0,0,1,232,90.87Zm-27,8.77a2.59,2.59,0,0,0,1.9-1.08,7.26,7.26,0,0,0,1.39-3.34l.68-3.28a13.68,13.68,0,0,0-4.58,2.29,4,4,0,0,0-1.7,3.14,1.92,1.92,0,0,0,.79,1.75A2.83,2.83,0,0,0,205.05,99.64Zm42.1-8.77a5.88,5.88,0,0,1-4.38-1.7,7,7,0,0,1-1.67-5.09,19.62,19.62,0,0,1,.45-3.68l6.05-28.35L256,50.92l-6.51,30.55a7,7,0,0,0-.23,1.81,2.08,2.08,0,0,0,.54,1.61,2.65,2.65,0,0,0,1.78.48A4.31,4.31,0,0,0,254.61,84a7.92,7.92,0,0,0,2-3.59H259q-2.09,6.11-5.38,8.29A11.72,11.72,0,0,1,247.15,90.87Zm17.48,0a9.05,9.05,0,0,1-6.45-2.18q-2.32-2.18-2.32-6.82a28,28,0,0,1,1.53-8.6,20,20,0,0,1,5-8.12,11.93,11.93,0,0,1,8.77-3.42q6.22,0,6.22,5.43A10.14,10.14,0,0,1,275.55,73a13.36,13.36,0,0,1-4.81,4.27,15.53,15.53,0,0,1-6.39,1.84q-.11,1.24-.11,1.7,0,4.7,3.51,4.7a8,8,0,0,0,3.39-.85,13.7,13.7,0,0,0,3.28-2.15Q272.89,90.87,264.63,90.87Zm.11-14.48a7.16,7.16,0,0,0,4-1.41,10.28,10.28,0,0,0,3.06-3.48A9.13,9.13,0,0,0,273,67q0-2.32-1.41-2.32-2,0-3.93,3.59A30,30,0,0,0,264.74,76.38Zm14.71-2.89h11.32l-1,4.47H278.43Zm22.41,17.37a9.14,9.14,0,0,1-6.51-2.18Q293,86.51,293,81.87a27.55,27.55,0,0,1,1.56-8.6,20.38,20.38,0,0,1,5-8.12,11.77,11.77,0,0,1,8.69-3.42q3.39,0,4.84,1.47a5.11,5.11,0,0,1,1.44,3.73,4.83,4.83,0,0,1-.85,3.06,2.63,2.63,0,0,1-2.15,1.08,3.58,3.58,0,0,1-2-.68,9.91,9.91,0,0,0,.68-3.34,3.14,3.14,0,0,0-.4-1.7,1.32,1.32,0,0,0-1.19-.62q-1.7,0-3.39,2.77a25.83,25.83,0,0,0-2.77,6.73,27.51,27.51,0,0,0-1.08,7.13q0,2.77,1,3.76a4.19,4.19,0,0,0,3.11,1,9.4,9.4,0,0,0,5.23-1.41,25.37,25.37,0,0,0,4.78-4.3h1.92Q311.14,90.87,301.86,90.87Zm20.43,0a7.2,7.2,0,0,1-5.38-2.21q-2.15-2.21-2.15-6.9a25.84,25.84,0,0,1,1.67-8.8,20.26,20.26,0,0,1,5-7.81A11,11,0,0,1,329.3,62a6.06,6.06,0,0,1,3.45.79,2.44,2.44,0,0,1,1.13,2.09v.4l.62-3h8.15l-4.07,19.24a7,7,0,0,0-.23,1.81q0,2.43,2.32,2.43a3.42,3.42,0,0,0,2.74-1.47,11.08,11.08,0,0,0,1.84-3.85h2.38q-2.09,6.11-5.18,8.29a10.68,10.68,0,0,1-6.2,2.18,5.41,5.41,0,0,1-3.82-1.33,6,6,0,0,1-1.73-3.88,15.8,15.8,0,0,1-3.65,3.76A8,8,0,0,1,322.28,90.87ZM326,85.38a4.08,4.08,0,0,0,2.8-1.33,7,7,0,0,0,1.9-3.65l2.72-12.79a2.3,2.3,0,0,0-.57-1.44,2.11,2.11,0,0,0-1.75-.71q-2.26,0-4.07,2.63a20.83,20.83,0,0,0-2.83,6.34,25.06,25.06,0,0,0-1,6.54q0,2.83.82,3.62A2.78,2.78,0,0,0,326,85.38ZM349.1,62.24h8.15l-.74,3.51a22.68,22.68,0,0,1,3.48-2.6,6.58,6.58,0,0,1,3.37-.91,3.54,3.54,0,0,1,2.86,1.24,4.51,4.51,0,0,1,1,3,4.28,4.28,0,0,1-1.08,2.89,3.75,3.75,0,0,1-3,1.24,1.94,1.94,0,0,1-1.67-.59,4.52,4.52,0,0,1-.65-1.73,5.19,5.19,0,0,0-.34-1.08.63.63,0,0,0-.62-.34,3.91,3.91,0,0,0-2,.48A13.81,13.81,0,0,0,355.78,69l-4.53,21.5h-8.15Zm24.22,28.63a7.2,7.2,0,0,1-5.38-2.21q-2.15-2.21-2.15-6.9a25.84,25.84,0,0,1,1.67-8.8,20.26,20.26,0,0,1,5-7.81,11,11,0,0,1,7.89-3.2,6.06,6.06,0,0,1,3.45.79,2.44,2.44,0,0,1,1.13,2.09v.23l2.77-13,8.37-1.13-6.51,30.55a7,7,0,0,0-.23,1.81,2.08,2.08,0,0,0,.54,1.61,2.65,2.65,0,0,0,1.78.48A3.51,3.51,0,0,0,394.4,84a9.89,9.89,0,0,0,1.84-3.62h2.38q-3.45,10.13-11.37,10.13a5.56,5.56,0,0,1-3.76-1.24,5.63,5.63,0,0,1-1.78-3.62,13.67,13.67,0,0,1-3.54,3.73A8.12,8.12,0,0,1,373.32,90.87ZM377,85.38a4.16,4.16,0,0,0,2.74-1.24,6.43,6.43,0,0,0,1.9-3.45V80.4l2.77-13a2.27,2.27,0,0,0-2.32-2q-2.26,0-4.07,2.63a20.83,20.83,0,0,0-2.83,6.34,25.06,25.06,0,0,0-1,6.54q0,2.83.82,3.62A2.78,2.78,0,0,0,377,85.38Zm25.69,5.49a9.25,9.25,0,0,1-4.58-1,6.87,6.87,0,0,1-2.77-2.72,7.2,7.2,0,0,1-.91-3.48,6,6,0,0,1,.88-3.25,5.38,5.38,0,0,1,2.12-2,72.22,72.22,0,0,0,3.85-8q1.64-4,3.11-8.74l8.37-1.13q.28,7.24,1,15.67.28,3.39.28,4.92a8.81,8.81,0,0,1-1.75,5.66,9.85,9.85,0,0,1-4.33,3.17A14.85,14.85,0,0,1,402.69,90.87Zm-1.81-4.47a4.63,4.63,0,0,0,4.92-5.26,46,46,0,0,0-.34-4.75q-.57-6.45-.74-8.66a65.47,65.47,0,0,1-4.58,10.69,2.14,2.14,0,0,1,1.3,2,2.92,2.92,0,0,1-.71,1.92,2.22,2.22,0,0,1-1.78.85,1.5,1.5,0,0,1-1.53-.74,4.56,4.56,0,0,0,.82,3A3.28,3.28,0,0,0,400.87,86.4Z"/></g></g></g></g></g></g></svg>